<svg xmlns="http://www.w3.org/2000/svg" xmlns:xlink="http://www.w3.org/1999/xlink" width="35" height="21" viewBox="0 0 35 21">
  <defs>
    <clipPath id="clip-path">
      <rect id="Rectangle_92" data-name="Rectangle 92" width="26.568" height="9.278" fill="#fff"/>
    </clipPath>
    <clipPath id="clip-Amex">
      <rect width="35" height="21"/>
    </clipPath>
  </defs>
  <g id="Amex" clip-path="url(#clip-Amex)">
    <rect width="35" height="21" fill="#fff"/>
    <g id="mastercard" transform="translate(-0.432 -0.259)">
      <rect id="Rectangle_38" data-name="Rectangle 38" width="35" height="21" rx="6" transform="translate(0.432 0.259)" fill="#f6f8fa"/>
    </g>
    <g id="Group_118" data-name="Group 118" transform="translate(4.216 5.861)" clip-path="url(#clip-path)">
      <path id="Path_55" data-name="Path 55" d="M11,16.125h.928l-.464-1.181Z" transform="translate(-8.723 -13.827)" fill="#2fabf7"/>
      <path id="Path_56" data-name="Path 56" d="M39.4,15.32a.822.822,0,0,0-.337-.042h-.843v.675h.843a.821.821,0,0,0,.337-.042.328.328,0,0,0,.127-.3A.234.234,0,0,0,39.4,15.32Z" transform="translate(-25.613 -14.034)" fill="#228fe0"/>
      <path id="Path_57" data-name="Path 57" d="M27.815,12.056v.506l-.253-.506H25.58v.506l-.253-.506h-2.7a2.568,2.568,0,0,0-1.181.253v-.253h-1.9v.253a1.216,1.216,0,0,0-.8-.253h-6.79l-.464,1.054-.464-1.054H8.88v.506l-.253-.506H6.813L5.97,14.038,5,16.231H7.151l.253-.675h.59l.253.675h2.446v-.506l.211.506h1.223l.211-.506v.506H18.2v-1.1h.084c.084,0,.084,0,.084.127v.928H21.4v-.253a2.527,2.527,0,0,0,1.139.253h1.265l.253-.675h.59l.253.675h2.446v-.633l.38.633h1.982V12.056ZM13.561,15.6h-.717V13.279L11.832,15.6H11.2l-1.012-2.319V15.6H8.753l-.3-.633H7.024l-.253.675h-.8l1.265-2.994H8.289L9.47,15.472V12.646h1.139l.928,2.024.843-2.024h1.181Zm2.868-2.319H14.784v.548h1.6v.59h-1.6v.59h1.645v.633H14.067V12.646h2.362ZM19.591,14.5a1.055,1.055,0,0,1,.127.548v.59H19v-.38a1,1,0,0,0-.127-.59c-.127-.127-.253-.127-.506-.127h-.759v1.1h-.717V12.646h1.6a1.617,1.617,0,0,1,.843.127.719.719,0,0,1,.337.675.84.84,0,0,1-.506.8A.8.8,0,0,1,19.591,14.5Zm1.265,1.1H20.14V12.6h.717Zm8.308,0H28.152L26.8,13.363V15.6H25.369l-.253-.633H23.64l-.253.675h-.8a1.268,1.268,0,0,1-1.392-1.476,1.729,1.729,0,0,1,.38-1.181,1.329,1.329,0,0,1,1.054-.337H23.3v.633h-.675a.778.778,0,0,0-.548.169.99.99,0,0,0-.211.675.918.918,0,0,0,.211.717.672.672,0,0,0,.506.169h.3l.97-2.319h1.054l1.181,2.826V12.688H27.14l1.223,2.066V12.688h.717V15.6Z" transform="translate(-5 -12.034)" fill="#0571c1"/>
      <path id="Path_58" data-name="Path 58" d="M54.778,16.125h.97l-.464-1.181Z" transform="translate(-35.885 -13.827)" fill="#228fe0"/>
      <path id="Path_59" data-name="Path 59" d="M34.1,30.126v-2.4L33,28.9Z" transform="translate(-22.373 -21.755)" fill="#228fe0"/>
      <path id="Path_60" data-name="Path 60" d="M24,28.5v.548h1.56v.59H24v.633h1.729l.8-.886-.759-.886Z" transform="translate(-16.789 -22.237)" fill="#2fabf7"/>
      <path id="Path_61" data-name="Path 61" d="M38.663,28.5h-.886v.759h.928c.253,0,.422-.127.422-.38A.425.425,0,0,0,38.663,28.5Z" transform="translate(-25.337 -22.237)" fill="#228fe0"/>
      <path id="Path_62" data-name="Path 62" d="M40.94,27.287v-1.9H39.169a1.384,1.384,0,0,0-.886.253v-.253h-1.94a1.338,1.338,0,0,0-.843.253v-.253H32.084v.253a1.63,1.63,0,0,0-.928-.253H28.879v.253a1.6,1.6,0,0,0-.97-.253h-2.53l-.59.633-.548-.633h-3.8v4.133h3.711l.59-.633.548.633h2.277v-.97h.3a2.566,2.566,0,0,0,.97-.127v1.139h1.9v-1.1h.084c.127,0,.127,0,.127.127v.97h5.735a1.653,1.653,0,0,0,.97-.253v.253h1.813a1.894,1.894,0,0,0,1.012-.211,1.436,1.436,0,0,0,.675-1.265A1.615,1.615,0,0,0,40.94,27.287Zm-13.073.675h-.843v1.012H25.674L24.83,28l-.886.97H21.161V25.979h2.826l.843.97.886-.97h2.235c.548,0,1.181.169,1.181.97C29.09,27.793,28.5,27.961,27.867,27.961Zm4.217-.169a.957.957,0,0,1,.127.548v.59h-.717v-.38a.941.941,0,0,0-.127-.59c-.084-.127-.253-.127-.506-.127H30.1v1.1h-.717V25.937h1.6a1.7,1.7,0,0,1,.843.127.746.746,0,0,1,.38.675.84.84,0,0,1-.506.8A.721.721,0,0,1,32.084,27.793Zm2.91-1.223H33.349v.548h1.6v.59h-1.6v.59h1.645v.633H32.632V25.937h2.362Zm1.771,2.362h-1.35V28.3h1.35a.356.356,0,0,0,.3-.084.306.306,0,0,0,0-.422.357.357,0,0,0-.253-.084c-.675-.042-1.476,0-1.476-.928,0-.422.253-.886,1.012-.886h1.392v.717H36.428a.625.625,0,0,0-.3.042c-.084.042-.084.127-.084.211,0,.127.084.169.169.211a.535.535,0,0,0,.253.042h.38a1.074,1.074,0,0,1,.8.253.873.873,0,0,1,.211.633C37.861,28.636,37.482,28.931,36.765,28.931Zm3.627-.3a1.23,1.23,0,0,1-.886.3H38.157V28.3h1.349a.356.356,0,0,0,.3-.084.306.306,0,0,0,0-.422.357.357,0,0,0-.253-.084c-.675-.042-1.476,0-1.476-.928,0-.422.253-.886,1.012-.886h1.392v.717H39.211a.625.625,0,0,0-.3.042c-.084.042-.084.127-.084.211,0,.127.042.169.169.211a.535.535,0,0,0,.253.042h.38a1.074,1.074,0,0,1,.8.253.041.041,0,0,1,.042.042.968.968,0,0,1,.169.59A.858.858,0,0,1,40.392,28.636Z" transform="translate(-14.583 -20.307)" fill="#0571c1"/>
      <path id="Path_63" data-name="Path 63" d="M47.181,28.653a.822.822,0,0,0-.337-.042H46v.675h.843a.822.822,0,0,0,.337-.042.328.328,0,0,0,.127-.3A.234.234,0,0,0,47.181,28.653Z" transform="translate(-30.439 -22.306)" fill="#228fe0"/>
      <path id="Path_64" data-name="Path 64" d="M39.4,15.32a.822.822,0,0,0-.337-.042h-.843v.675h.843a.821.821,0,0,0,.337-.042.328.328,0,0,0,.127-.3A.234.234,0,0,0,39.4,15.32Z" transform="translate(-25.613 -14.034)" fill="#228fe0"/>
      <path id="Path_65" data-name="Path 65" d="M54.778,16.125h.97l-.464-1.181Z" transform="translate(-35.885 -13.827)" fill="#228fe0"/>
      <path id="Path_66" data-name="Path 66" d="M34.1,30.126v-2.4L33,28.9Z" transform="translate(-22.373 -21.755)" fill="#228fe0"/>
      <path id="Path_67" data-name="Path 67" d="M38.663,28.5h-.886v.759h.928c.253,0,.422-.127.422-.38A.425.425,0,0,0,38.663,28.5Z" transform="translate(-25.337 -22.237)" fill="#228fe0"/>
      <path id="Path_68" data-name="Path 68" d="M47.181,28.653a.822.822,0,0,0-.337-.042H46v.675h.843a.822.822,0,0,0,.337-.042.328.328,0,0,0,.127-.3A.234.234,0,0,0,47.181,28.653Z" transform="translate(-30.439 -22.306)" fill="#228fe0"/>
      <path id="Path_69" data-name="Path 69" d="M27.614,28.847l-.59-.633v.717H25.632l-.843-.97-.928.97H21.077V25.979H23.9l.886.97.422-.506-1.054-1.054H20.444v4.133h3.711l.633-.633.548.633h2.277Z" transform="translate(-14.583 -20.307)" fill="#2fabf7"/>
      <path id="Path_70" data-name="Path 70" d="M13.645,16.188,13.1,15.6h-.253v-.253l-.633-.633-.422.886H11.2l-1.012-2.319V15.6H8.753l-.3-.633H7.024l-.3.633H5.97l1.265-2.952H8.289L9.47,15.472V12.646H10.1l-.59-.59H8.88v.506l-.211-.506H6.813L5.97,14.038,5,16.188H7.193l.253-.633h.59l.3.633h2.362v-.506l.211.506h1.223l.211-.506v.506Z" transform="translate(-5 -12.034)" fill="#2fabf7"/>
      <path id="Path_71" data-name="Path 71" d="M21.564,16.73l-.675-.675.506,1.1Z" transform="translate(-14.858 -14.516)" fill="#2fabf7"/>
      <path id="Path_72" data-name="Path 72" d="M45.922,29.1a1.543,1.543,0,0,0,.675-1.139l-.59-.59a1.248,1.248,0,0,1,.084.422.858.858,0,0,1-.253.633,1.23,1.23,0,0,1-.886.3H43.6v-.633h1.349a.356.356,0,0,0,.3-.084.306.306,0,0,0,0-.422.357.357,0,0,0-.253-.084c-.675-.042-1.476,0-1.476-.928,0-.422.253-.8.886-.886l-.464-.464c-.084.042-.127.084-.169.084v-.253h-1.94a1.338,1.338,0,0,0-.843.253v-.253H37.53v.253a1.63,1.63,0,0,0-.928-.253H34.325v.253a1.6,1.6,0,0,0-.97-.253h-2.53l-.59.633-.548-.633h-.464l1.265,1.265.633-.675h2.235c.548,0,1.181.169,1.181.97,0,.843-.59,1.012-1.223,1.012h-.843v.633l.633.633v-.633h.211a2.566,2.566,0,0,0,.97-.127v1.139h1.9v-1.1h.084c.127,0,.127,0,.127.127v.97h5.735a1.653,1.653,0,0,0,.97-.253v.253H44.91A1.673,1.673,0,0,0,45.922,29.1ZM37.53,27.586a.957.957,0,0,1,.126.548v.59H36.94v-.38a.941.941,0,0,0-.127-.59c-.084-.127-.253-.127-.506-.127h-.759v1.1h-.717V25.73h1.6a1.7,1.7,0,0,1,.843.127.746.746,0,0,1,.38.675.84.84,0,0,1-.506.8A.721.721,0,0,1,37.53,27.586Zm2.91-1.223H38.8v.548h1.6v.59H38.8v.59H40.44v.633H38.078V25.73H40.44Zm1.771,2.362H40.862v-.633h1.349a.356.356,0,0,0,.3-.084.306.306,0,0,0,0-.422.356.356,0,0,0-.253-.084c-.675-.042-1.476,0-1.476-.928,0-.422.253-.886,1.012-.886h1.392v.717H41.874a.625.625,0,0,0-.3.042c-.084.042-.084.127-.084.211,0,.127.084.169.169.211a.535.535,0,0,0,.253.042h.38a1.074,1.074,0,0,1,.8.253.873.873,0,0,1,.211.633C43.308,28.429,42.928,28.724,42.211,28.724Z" transform="translate(-20.029 -20.1)" fill="#228fe0"/>
      <path id="Path_73" data-name="Path 73" d="M68.778,28.864c0,.127.042.169.169.211a.535.535,0,0,0,.253.042h.38a1.225,1.225,0,0,1,.59.127l-.633-.633h-.38a.625.625,0,0,0-.3.042A.322.322,0,0,0,68.778,28.864Z" transform="translate(-44.571 -22.306)" fill="#228fe0"/>
      <path id="Path_74" data-name="Path 74" d="M64.889,22.611l.084.127h.042Z" transform="translate(-42.158 -18.584)" fill="#228fe0"/>
      <path id="Path_75" data-name="Path 75" d="M58.778,16.5l.717,1.729V17.217Z" transform="translate(-38.366 -14.792)" fill="#228fe0"/>
      <path id="Path_76" data-name="Path 76" d="M25.025,15.2h.084c.084,0,.084,0,.084.127v.928H28.23V16a2.526,2.526,0,0,0,1.139.253h1.265l.253-.675h.59l.253.675h2.446v-.422l-.59-.59v.464H32.152l-.211-.675H30.465l-.253.675h-.8a1.268,1.268,0,0,1-1.392-1.476,1.729,1.729,0,0,1,.38-1.181,1.329,1.329,0,0,1,1.054-.337h.675v.633h-.675a.778.778,0,0,0-.548.169.99.99,0,0,0-.211.675.917.917,0,0,0,.211.717.672.672,0,0,0,.506.169h.3l.97-2.319H31.1l-.59-.59h-1.1a2.568,2.568,0,0,0-1.181.253v-.253H26.374v.253a1.216,1.216,0,0,0-.8-.253h-6.79l-.464,1.054-.464-1.054H16l.59.59h.843l.717,1.56.253.253.759-1.856h1.181v2.994h-.717V13.39l-.717,1.687L20.133,16.3h4.85Zm1.94-2.488h.717v2.994h-.717Zm-3.711.633H21.609V13.9h1.6v.59h-1.6v.59h1.645v.633H20.892V12.715h2.362Zm1.181,2.319h-.717V12.673h1.6a1.617,1.617,0,0,1,.843.127.719.719,0,0,1,.337.675.84.84,0,0,1-.506.8.552.552,0,0,1,.337.253,1.055,1.055,0,0,1,.127.548v.59h-.717v-.38a1,1,0,0,0-.127-.59c-.042-.084-.169-.084-.422-.084h-.759Z" transform="translate(-11.825 -12.103)" fill="#228fe0"/>
    </g>
  </g>
</svg>
