<svg xmlns="http://www.w3.org/2000/svg" xmlns:xlink="http://www.w3.org/1999/xlink" width="35" height="21" viewBox="0 0 35 21">
  <defs>
    <clipPath id="clip-Diners">
      <rect width="35" height="21"/>
    </clipPath>
  </defs>
  <g id="Diners" clip-path="url(#clip-Diners)">
    <rect width="35" height="21" fill="#fff"/>
    <g id="mastercard" transform="translate(-0.432 -0.259)">
      <rect id="Rectangle_38" data-name="Rectangle 38" width="35" height="21" rx="6" transform="translate(0.432 0.259)" fill="#f6f8fa"/>
    </g>
    <g id="__x0023_Layer_x0020_1" transform="translate(5.099 7.286)">
      <path id="Path_77" data-name="Path 77" d="M4.753,6.427a3.34,3.34,0,0,0,3.36-3.186A3.282,3.282,0,0,0,4.753,0H3.241A3.17,3.17,0,0,0,0,3.242,3.22,3.22,0,0,0,3.241,6.427Z" transform="translate(0 0)" fill="#0079be"/>
      <path id="Path_78" data-name="Path 78" d="M27.012,20.83a2.942,2.942,0,1,0,2.942,2.942A2.942,2.942,0,0,0,27.012,20.83Zm-1.864,2.942h0a1.868,1.868,0,0,1,1.2-1.74v3.48A1.867,1.867,0,0,1,25.148,23.772Zm2.532,1.741h0V22.032a1.864,1.864,0,0,1,0,3.481Z" transform="translate(-23.764 -20.564)" fill="#fff"/>
      <path id="Path_79" data-name="Path 79" d="M692.912,79.386c0-.3-.159-.284-.31-.287v-.088c.132.007.267.007.4.007s.335-.007.585-.007a1.231,1.231,0,0,1,1.352,1.183c0,.335-.2,1.176-1.392,1.176-.172,0-.331-.007-.49-.007s-.3,0-.453.007v-.088c.2-.02.3-.027.311-.257V79.386Zm.331,1.586h0c0,.26.186.291.352.291a.942.942,0,0,0,.97-1.055,1.016,1.016,0,0,0-1.058-1.088c-.139,0-.2.01-.264.014v1.839Z" transform="translate(-683.768 -78.003)" fill="#211e1f"/>
      <path id="Path_80" data-name="Path 80" d="M885.022,78.389h.064c.095,0,.162,0,.162-.112v-.916c0-.149-.051-.169-.176-.236v-.054c.159-.048.348-.111.361-.122a.121.121,0,0,1,.061-.017c.017,0,.024.02.024.048v1.3c0,.112.074.112.169.112h.057v.088c-.115,0-.233-.007-.355-.007s-.243,0-.368.007v-.088Zm.362-1.978h0a.166.166,0,0,1,0-.332.166.166,0,0,1,.166.163A.169.169,0,0,1,885.383,76.412Z" transform="translate(-873.736 -75.11)" fill="#211e1f"/>
      <path id="Path_81" data-name="Path 81" d="M949.632,143.341c0-.125-.037-.159-.2-.223v-.064a4.525,4.525,0,0,0,.446-.162c.01,0,.02.007.02.034v.22a.991.991,0,0,1,.585-.254c.287,0,.388.21.388.473v.872c0,.112.074.112.169.112h.061v.088c-.119,0-.237-.007-.358-.007s-.244,0-.365.007v-.088h.061c.095,0,.162,0,.162-.112v-.875c0-.193-.118-.287-.311-.287a.9.9,0,0,0-.392.162v1c0,.112.075.112.17.112h.061v.088c-.118,0-.237-.007-.358-.007s-.243,0-.365.007v-.088h.061c.095,0,.162,0,.162-.112v-.9Z" transform="translate(-937.302 -141.069)" fill="#211e1f"/>
      <path id="Path_82" data-name="Path 82" d="M1081.668,143.5a.814.814,0,0,0,0,.2.565.565,0,0,0,.5.585.648.648,0,0,0,.457-.226l.047.047a.793.793,0,0,1-.625.382.679.679,0,0,1-.646-.737c0-.663.446-.859.682-.859a.537.537,0,0,1,.571.531.41.41,0,0,1,0,.061l-.031.02Zm.6-.108h0c.084,0,.094-.044.094-.084a.287.287,0,0,0-.294-.311c-.206,0-.348.152-.389.4Z" transform="translate(-1067.607 -141.068)" fill="#211e1f"/>
      <path id="Path_83" data-name="Path 83" d="M1185.82,144.347h.091c.094,0,.162,0,.162-.112v-.95c0-.1-.125-.125-.176-.152v-.051c.247-.1.382-.193.413-.193s.03.01.03.044v.3h.007c.084-.132.226-.348.432-.348a.184.184,0,0,1,.193.179.164.164,0,0,1-.159.173c-.105,0-.105-.081-.223-.081a.285.285,0,0,0-.247.281v.794c0,.112.068.112.162.112h.189v.088c-.186,0-.327-.007-.473-.007s-.281,0-.4.007v-.088Z" transform="translate(-1170.698 -141.068)" fill="#211e1f"/>
      <path id="Path_84" data-name="Path 84" d="M1283.14,143.966a.445.445,0,0,0,.426.413.239.239,0,0,0,.273-.24c0-.4-.737-.27-.737-.815a.465.465,0,0,1,.524-.433.887.887,0,0,1,.385.1l.024.344h-.078a.347.347,0,0,0-.368-.335.237.237,0,0,0-.263.223c0,.4.784.274.784.8,0,.223-.179.46-.581.46a.891.891,0,0,1-.412-.115l-.037-.389.061-.017Z" transform="translate(-1266.716 -141.069)" fill="#211e1f"/>
      <path id="Path_85" data-name="Path 85" d="M1439.72,75.683h-.084a.643.643,0,0,0-.723-.554.963.963,0,0,0-.953,1.071,1.1,1.1,0,0,0,1.007,1.173.687.687,0,0,0,.679-.585l.078.02-.078.494a1.893,1.893,0,0,1-.747.179,1.2,1.2,0,0,1-1.291-1.271,1.243,1.243,0,0,1,1.281-1.19,2.439,2.439,0,0,1,.8.18l.034.483Z" transform="translate(-1419.275 -74.063)" fill="#211e1f"/>
      <path id="Path_86" data-name="Path 86" d="M1612.778,64h.064c.095,0,.162,0,.162-.112V62.011c0-.22-.051-.227-.179-.264v-.054a2.155,2.155,0,0,0,.348-.145.35.35,0,0,1,.074-.037c.021,0,.027.02.027.048v2.336c0,.112.074.112.169.112h.057v.088c-.115,0-.233-.007-.355-.007s-.243,0-.368.007V64Z" transform="translate(-1592.211 -60.726)" fill="#211e1f"/>
      <path id="Path_87" data-name="Path 87" d="M1670.957,148.186c0,.061.037.064.094.064.041,0,.091,0,.135,0v.071a3.45,3.45,0,0,0-.487.1l-.017-.01v-.274a.912.912,0,0,1-.6.284.364.364,0,0,1-.372-.4v-.866c0-.088-.013-.172-.2-.189V146.9c.122,0,.392-.024.436-.024s.038.024.038.1v.872c0,.1,0,.392.294.392a.754.754,0,0,0,.409-.206v-.91c0-.067-.162-.1-.283-.138v-.061c.3-.02.493-.047.527-.047s.027.024.027.061v1.247Z" transform="translate(-1648.219 -145.005)" fill="#211e1f"/>
      <path id="Path_88" data-name="Path 88" d="M1800.867,62.791a.854.854,0,0,1,.5-.243.658.658,0,0,1,.628.71.853.853,0,0,1-.808.886,1,1,0,0,1-.47-.118l-.1.078-.071-.037a4.008,4.008,0,0,0,.047-.6V62.011c0-.22-.051-.227-.179-.264v-.054a2.135,2.135,0,0,0,.348-.146.349.349,0,0,1,.075-.037c.02,0,.027.02.027.048v1.234h0Zm0,.919h0a.364.364,0,0,0,.348.345c.362,0,.514-.355.514-.656a.645.645,0,0,0-.541-.669.52.52,0,0,0-.321.159v.821Z" transform="translate(-1777.457 -60.726)" fill="#211e1f"/>
      <path id="Path_89" data-name="Path 89" d="M692.3,323.048h.026c.066,0,.136-.009.136-.1v-.964c0-.1-.07-.1-.136-.1H692.3v-.055c.072,0,.182.007.273.007s.2-.007.288-.007v.055h-.026c-.066,0-.136.009-.136.1v.964c0,.1.07.1.136.1h.026v.055c-.088,0-.2-.007-.29-.007s-.2.007-.271.007v-.055Z" transform="translate(-683.47 -317.716)" fill="#211e1f"/>
      <path id="Path_90" data-name="Path 90" d="M692.253,322.48c-.089,0-.2-.007-.291-.007s-.2.007-.27.007h-.008v-.071h.034c.067,0,.127-.007.128-.1v-.964c0-.09-.061-.1-.128-.1h-.034v-.071h.008c.072,0,.182.007.272.007s.2-.007.289-.007h.008v.071h-.034c-.067,0-.128.007-.128.1v.964c0,.09.062.1.128.1h.034v.071Zm-.008-.016h0v-.039h-.018c-.066,0-.144-.011-.144-.113v-.964c0-.1.079-.113.144-.113h.018V321.2c-.085,0-.191.007-.281.007s-.193-.007-.264-.007v.039h.018c.065,0,.144.011.144.113v.964c0,.1-.078.113-.144.113H691.7v.039c.071,0,.175-.007.262-.007s.2.007.283.007Z" transform="translate(-682.863 -317.084)" fill="#211e1f"/>
      <path id="Path_91" data-name="Path 91" d="M742.956,322.74l0,0v-.69a.152.152,0,0,0-.16-.173h-.041v-.055c.087,0,.171.007.258.007s.151-.007.226-.007v.055h-.028c-.077,0-.164.015-.164.233v.837a1.22,1.22,0,0,0,.011.186h-.07l-.947-1.056v.758c0,.16.031.215.173.215h.031v.055c-.079,0-.158-.007-.237-.007s-.167.007-.25.007v-.055h.026c.127,0,.165-.086.165-.233v-.775a.165.165,0,0,0-.167-.165h-.024v-.055c.07,0,.142.007.211.007s.109-.007.164-.007l.819.921Z" transform="translate(-732.302 -317.715)" fill="#211e1f"/>
      <path id="Path_92" data-name="Path 92" d="M742.424,322.528l-.076,0-.933-1.04v.737c0,.16.026.205.165.207h.039v.071h-.008c-.08,0-.159-.007-.237-.007s-.167.007-.25.007h-.008v-.071h.034c.122,0,.156-.079.158-.225v-.775a.158.158,0,0,0-.159-.158h-.032V321.2h.008c.07,0,.142.007.211.007s.108-.007.17,0l.808.91v-.676c0-.146-.1-.164-.152-.165h-.049V321.2h.008c.087,0,.172.007.257.007s.15-.007.226-.007h.008v.071h-.035c-.076,0-.154.009-.156.226v.837a1.209,1.209,0,0,0,.011.184l0,.009h-.01Zm-.07-.016h.061a1.234,1.234,0,0,1-.01-.178V321.5c0-.221.092-.242.172-.242h.019v-.039c-.072,0-.145.007-.218.007s-.166-.007-.249-.007v.039h.033a.161.161,0,0,1,.168.181l0,.7,0,0-.006.006-.818-.925c-.055,0-.108.007-.164.007s-.136-.007-.2-.007v.039h.016a.173.173,0,0,1,.175.174v.775c0,.147-.041.241-.173.242h-.018v.04c.08,0,.162-.007.242-.007s.153.007.229.007v-.039h-.023c-.145,0-.181-.063-.181-.223v-.779l.955,1.068Zm-.037-.382h0l.006-.005Zm0,0h0Z" transform="translate(-731.665 -317.105)" fill="#211e1f"/>
      <path id="Path_93" data-name="Path 93" d="M861.945,317.49c-.138,0-.143.033-.171.167h-.055c.007-.051.016-.1.022-.156a1.091,1.091,0,0,0,.011-.156h.044c.015.055.061.053.111.053h.949c.05,0,.1,0,.1-.057l.044.007c-.007.05-.015.1-.02.149s0,.1,0,.149l-.055.021c0-.068-.013-.177-.136-.177h-.3v.979c0,.142.064.158.152.158h.035v.055c-.072,0-.2-.007-.3-.007s-.239.007-.311.007v-.055h.035c.1,0,.153-.009.153-.154v-.982Z" transform="translate(-850.73 -313.294)" fill="#211e1f"/>
      <path id="Path_94" data-name="Path 94" d="M861.96,317.967c-.072,0-.2-.007-.3-.007s-.239.007-.311.007h-.008V317.9h.043c.1,0,.142,0,.144-.146v-.974h-.294v-.016h.31v.991c0,.148-.059.162-.16.163h-.027v.039c.073,0,.2-.007.3-.007s.219.007.292.007v-.039h-.027c-.089,0-.16-.022-.16-.166v-.987h.31c.123,0,.14.105.144.174l.04-.015c0-.048,0-.1,0-.145s.012-.094.019-.141l-.028,0c-.008.054-.06.056-.107.056h-.958c-.043,0-.091,0-.107-.053h-.03a1.083,1.083,0,0,1-.011.149c-.005.051-.014.1-.021.148h.039c.024-.128.04-.17.177-.168v.016c-.136,0-.133.025-.163.161v.006H861v-.01c.007-.052.017-.1.022-.156a1.039,1.039,0,0,0,.011-.155v-.008h.058v.006c.013.046.047.047.093.047h.958c.051,0,.089,0,.092-.05v-.009l.008,0,.052.008v.008c-.007.049-.015.1-.02.148s0,.1,0,.148v.006l-.005,0-.065.024v-.011c0-.069-.012-.169-.128-.169h-.294v.971c0,.139.057.148.144.15h.043v.071Z" transform="translate(-850.02 -312.571)" fill="#211e1f"/>
      <path id="Path_95" data-name="Path 95" d="M966.691,323.048h.026c.066,0,.136-.009.136-.1v-.964c0-.1-.07-.1-.136-.1h-.026v-.055c.112,0,.3.007.458.007s.346-.007.471-.007c0,.079,0,.2,0,.281l-.055.015c-.009-.119-.031-.215-.224-.215h-.255v.482h.219c.11,0,.134-.062.145-.162h.055q-.005.108-.005.215c0,.07,0,.14.005.21l-.055.011c-.011-.11-.016-.182-.143-.182h-.22v.428c0,.12.106.12.224.12.221,0,.318-.015.373-.224l.052.013c-.024.1-.046.2-.062.293-.118,0-.329-.007-.495-.007s-.384.007-.489.007v-.055Z" transform="translate(-954.363 -317.716)" fill="#211e1f"/>
      <path id="Path_96" data-name="Path 96" d="M967.073,322.5c-.118,0-.33-.008-.495-.008s-.384.008-.489.008h-.008v-.071h.034c.067,0,.127-.007.128-.1v-.964c0-.09-.061-.1-.128-.1h-.034V321.2h.008c.112,0,.3.007.458.007s.345-.007.471-.007h.008v.008c0,.028,0,.06,0,.1,0,.064,0,.133.005.186v.007l-.006,0-.065.017v-.009c-.011-.119-.027-.206-.216-.208h-.248v.466h.211c.106,0,.125-.055.137-.154V321.6h.07v.008c0,.072-.006.143-.006.215s0,.139.006.209v.007l-.007,0-.064.013v-.009c-.013-.112-.014-.174-.136-.175h-.213v.421c0,.112.1.111.216.112.221,0,.31-.012.366-.219l0-.007h.008l.059.015,0,.008c-.024.1-.046.195-.062.292l0,.007Zm-.007-.016h0c.016-.093.037-.186.06-.278l-.036-.009c-.055.206-.162.224-.379.223-.116,0-.232,0-.232-.128v-.436h.229c.128,0,.142.076.151.181l.04-.008c0-.068-.005-.136-.005-.2s0-.138.005-.207h-.04c-.01.1-.04.163-.152.162h-.227v-.5h.264c.191,0,.223.1.231.213l.04-.011c0-.052-.005-.118-.005-.18,0-.031,0-.061,0-.087-.125,0-.311.007-.463.007s-.337-.007-.45-.007v.039h.018c.066,0,.144.011.144.113v.964c0,.1-.078.113-.144.113H966.1v.039c.107,0,.32-.007.481-.007s.369.007.488.007Z" transform="translate(-953.761 -317.105)" fill="#211e1f"/>
      <path id="Path_97" data-name="Path 97" d="M1055.524,322.005c0-.134-.073-.14-.131-.14h-.033v-.055c.059,0,.173.007.285.007s.2-.007.3-.007c.231,0,.438.063.438.324a.347.347,0,0,1-.256.324l.314.471a.2.2,0,0,0,.178.11v.055c-.061,0-.12-.007-.18-.007s-.116.007-.173.007a5.155,5.155,0,0,1-.383-.6h-.121v.394c0,.142.066.147.151.147h.033v.055c-.105,0-.211-.007-.316-.007-.088,0-.175.007-.267.007v-.055h.033c.068,0,.131-.031.131-.1v-.935Zm.236.427h.09c.184,0,.283-.07.283-.287a.251.251,0,0,0-.268-.268.924.924,0,0,0-.1.007Z" transform="translate(-1041.901 -317.706)" fill="#211e1f"/>
      <path id="Path_98" data-name="Path 98" d="M1055.992,322.483c-.062,0-.12-.007-.181-.007s-.115.007-.179,0a5.146,5.146,0,0,1-.381-.593h-.109v.385c0,.138.057.137.143.139h.041v.071h-.008c-.105,0-.212-.007-.316-.007-.088,0-.174.007-.266.007h-.008v-.071h.041c.066,0,.122-.029.122-.091v-.934c0-.131-.065-.13-.122-.132h-.041v-.071h.008c.06,0,.173.007.285.007s.2-.007.3-.007c.232,0,.445.065.446.332a.352.352,0,0,1-.252.328l.309.463a.2.2,0,0,0,.173.107H1056v.07Zm-.857-.612h.126l0,0a5.718,5.718,0,0,0,.376.592c.056,0,.115-.008.172-.008s.115.006.173.007v-.04a.21.21,0,0,1-.177-.113l-.32-.479.009,0a.339.339,0,0,0,.25-.317c0-.255-.2-.314-.429-.315-.1,0-.185.007-.3.007s-.217-.007-.277-.007v.039h.025c.057,0,.139.01.139.148v.935c0,.074-.069.107-.139.108h-.025v.039c.089,0,.172-.007.259-.007.1,0,.207.007.308.007v-.039h-.025c-.084,0-.159-.011-.159-.156v-.4Zm0-.051h-.008v-.563h.007a.906.906,0,0,1,.106-.007.26.26,0,0,1,.277.277c0,.22-.106.294-.291.294Zm.09-.016h0c.182,0,.274-.065.276-.279a.244.244,0,0,0-.261-.261.772.772,0,0,0-.1.007v.533Z" transform="translate(-1041.277 -317.087)" fill="#211e1f"/>
      <path id="Path_99" data-name="Path 99" d="M1159.365,322.74l0,0v-.69a.151.151,0,0,0-.16-.173h-.04v-.055c.086,0,.171.007.257.007s.151-.007.227-.007v.055h-.028c-.077,0-.164.015-.164.233v.837a1.221,1.221,0,0,0,.011.186h-.07l-.947-1.056v.758c0,.16.031.215.173.215h.031v.055c-.079,0-.158-.007-.237-.007s-.168.007-.25.007v-.055h.026c.127,0,.166-.086.166-.233v-.775a.165.165,0,0,0-.167-.165h-.024v-.055c.07,0,.142.007.211.007s.108-.007.164-.007l.818.921Z" transform="translate(-1143.401 -317.715)" fill="#211e1f"/>
      <path id="Path_100" data-name="Path 100" d="M1158.829,322.508l-.076,0-.933-1.04v.737c0,.16.026.205.165.207h.039v.071h-.008c-.08,0-.158-.008-.237-.008s-.167.008-.25.008h-.008v-.071h.034c.121,0,.156-.079.157-.226v-.774a.157.157,0,0,0-.159-.157h-.032v-.071h.008c.07,0,.142.007.211.007.054,0,.107-.007.169,0l.808.91v-.677c0-.146-.1-.164-.152-.165h-.049v-.071h.008c.087,0,.172.007.258.007s.15-.007.226-.007h.008v.071h-.035c-.076,0-.154.009-.156.226v.837a1.16,1.16,0,0,0,.011.185v.009Zm-.07-.016h.06a1.26,1.26,0,0,1-.01-.178v-.837c0-.221.093-.241.172-.242H1159V321.2c-.072,0-.145.007-.218.007s-.166-.007-.25-.007v.039h.033a.161.161,0,0,1,.168.181l0,.7,0,0-.006.006-.818-.925c-.055,0-.108.007-.163.007s-.137-.007-.2-.007v.039h.016a.174.174,0,0,1,.175.174v.774c0,.148-.042.242-.173.242h-.018v.039c.079,0,.161-.007.242-.007s.154.007.229.007v-.039h-.023c-.145,0-.181-.064-.181-.224v-.778l.955,1.068Zm-.037-.382h0l.006-.005Zm0,0h0Z" transform="translate(-1142.76 -317.085)" fill="#211e1f"/>
      <path id="Path_101" data-name="Path 101" d="M1273.956,319.267a.731.731,0,0,0-.041.143c0,.055.077.064.138.064h.021v.055c-.074,0-.149-.007-.223-.007s-.132,0-.2.007v-.055h.011a.166.166,0,0,0,.16-.12l.295-.844a1.569,1.569,0,0,0,.068-.228.941.941,0,0,0,.167-.079.041.041,0,0,1,.015,0,.013.013,0,0,1,.013.006c.005.015.011.031.017.046l.338.962c.022.064.044.132.068.188a.117.117,0,0,0,.122.073h.011v.055c-.083,0-.166-.007-.254-.007s-.182,0-.276.007v-.055h.02c.042,0,.114-.007.114-.053a.589.589,0,0,0-.037-.133l-.072-.213h-.417l-.059.191Zm.268-.815h0l-.171.521h.344Z" transform="translate(-1257.41 -314.142)" fill="#211e1f"/>
      <path id="Path_102" data-name="Path 102" d="M1274.312,318.917c-.083,0-.165-.008-.253-.008s-.182,0-.276.008h-.008v-.072h.028c.043,0,.106-.01.106-.045a.585.585,0,0,0-.036-.13l-.07-.208h-.406l-.057.186a.771.771,0,0,0-.041.141c0,.045.069.056.13.056h.028v.072h-.008c-.074,0-.149-.008-.222-.008s-.132,0-.2.008h-.009v-.072h.019a.158.158,0,0,0,.152-.114l.294-.844a2.135,2.135,0,0,0,.073-.233.934.934,0,0,0,.167-.079.052.052,0,0,1,.018,0,.023.023,0,0,1,.02.011l.017.046.339.962c.022.065.044.133.068.187a.108.108,0,0,0,.114.069h.019v.072Zm-.521-.016h0c.091,0,.18-.007.268-.007s.165,0,.245.007v-.038h0a.125.125,0,0,1-.129-.079c-.024-.056-.046-.124-.068-.188l-.339-.962c-.006-.015-.011-.031-.016-.044s0,0,0,0h0l-.011,0a.683.683,0,0,1-.164.074,1.506,1.506,0,0,1-.068.23l-.294.844a.175.175,0,0,1-.167.125h0v.038c.063,0,.127-.007.191-.007s.144,0,.214.007v-.038h-.012c-.06,0-.143-.008-.146-.072a.733.733,0,0,1,.041-.146l.008,0-.008,0,.061-.2h.429l.074.219a.557.557,0,0,1,.037.135c0,.056-.08.06-.122.062h-.012v.038Zm-.376-.541h0l.176-.536h.01v.008h0v-.008h.005l.175.536Zm.022-.016h.322l-.16-.493Zm.156-.51Z" transform="translate(-1256.786 -313.521)" fill="#211e1f"/>
      <path id="Path_103" data-name="Path 103" d="M1363.125,317.49c-.138,0-.144.033-.171.167h-.055c.007-.051.017-.1.022-.156a1.1,1.1,0,0,0,.011-.156h.044c.015.055.061.053.11.053h.949c.049,0,.1,0,.1-.057l.044.007c-.007.05-.014.1-.02.149s0,.1,0,.149l-.055.021c0-.068-.013-.177-.136-.177h-.3v.979c0,.142.065.158.152.158h.035v.055c-.072,0-.2-.007-.3-.007s-.239.007-.311.007v-.055h.035c.1,0,.153-.009.153-.154v-.982Z" transform="translate(-1345.517 -313.294)" fill="#211e1f"/>
      <path id="Path_104" data-name="Path 104" d="M1363.127,317.968c-.072,0-.2-.007-.3-.007s-.239.007-.311.007h-.008V317.9h.043c.1,0,.142,0,.145-.146v-.974h-.293v-.016h.309v.991c0,.148-.06.162-.161.162h-.027v.039c.073,0,.2-.007.3-.007s.219.007.292.007v-.039h-.027c-.089,0-.16-.022-.16-.166v-.987h.31c.123,0,.14.105.143.174l.04-.015c0-.048,0-.1,0-.144s.012-.095.019-.141l-.028,0c-.008.054-.06.057-.106.056h-.958c-.043,0-.09,0-.107-.054h-.03a1.094,1.094,0,0,1-.011.149c0,.051-.014.1-.021.148h.039c.024-.128.04-.17.178-.168v.016c-.136,0-.133.025-.163.161v.006h-.071v-.009c.008-.052.017-.1.022-.156a1.057,1.057,0,0,0,.011-.155v-.008h.058l0,.006c.013.046.046.047.093.047h.959c.051,0,.088,0,.091-.05v-.009l.009,0,.052.008v.008c-.008.049-.015.1-.02.148s0,.1,0,.148v.006l-.005,0-.065.024v-.011c0-.069-.012-.169-.128-.169h-.294v.971c0,.139.057.148.144.15h.043v.071Z" transform="translate(-1344.795 -312.572)" fill="#211e1f"/>
      <path id="Path_105" data-name="Path 105" d="M1468.59,323.048h.026c.066,0,.136-.009.136-.1v-.964c0-.1-.069-.1-.136-.1h-.026v-.055c.072,0,.182.007.272.007s.2-.007.289-.007v.055h-.026c-.066,0-.136.009-.136.1v.964c0,.1.07.1.136.1h.026v.055c-.088,0-.2-.007-.29-.007s-.2.007-.271.007Z" transform="translate(-1449.861 -317.716)" fill="#211e1f"/>
      <path id="Path_106" data-name="Path 106" d="M1468.53,322.5c-.089,0-.2-.008-.291-.008s-.2.008-.27.008h-.008v-.071h.034c.066,0,.127-.007.128-.1v-.964c0-.09-.061-.1-.128-.1h-.034V321.2h.008c.072,0,.182.007.272.007s.2-.007.289-.007h.008v.071h-.034c-.067,0-.127.007-.128.1v.964c0,.09.061.1.128.1h.034v.071Zm-.008-.016h0v-.039h-.018c-.066,0-.144-.012-.144-.113v-.964c0-.1.078-.113.144-.113h.018v-.039c-.085,0-.191.007-.281.007s-.193-.007-.264-.007v.039h.018c.065,0,.144.012.144.113v.964c0,.1-.079.113-.144.113h-.018v.039c.071,0,.175-.007.262-.007s.2.007.282.007Z" transform="translate(-1449.24 -317.105)" fill="#211e1f"/>
      <path id="Path_107" data-name="Path 107" d="M1517.579,319.66a.645.645,0,0,1,.7.635.674.674,0,0,1-.695.7.65.65,0,0,1-.688-.66.669.669,0,0,1,.678-.679Zm.028,1.258h0c.357,0,.419-.315.419-.583s-.145-.594-.45-.594c-.322,0-.417.287-.417.533,0,.329.151.644.449.644Z" transform="translate(-1497.556 -315.583)" fill="#211e1f"/>
      <path id="Path_108" data-name="Path 108" d="M1516.25,319.717a.678.678,0,0,1,.687-.687v.016a.662.662,0,0,0-.671.671.642.642,0,0,0,.68.652.667.667,0,0,0,.688-.7.638.638,0,0,0-.7-.627v-.016a.654.654,0,0,1,.713.642.684.684,0,0,1-.7.712.659.659,0,0,1-.7-.668h0Zm.258-.065h0c0-.247.1-.541.425-.541.312,0,.458.332.458.6s-.064.591-.427.591v-.016c.35,0,.41-.307.411-.575s-.144-.586-.443-.586c-.316,0-.409.28-.41.525,0,.328.15.635.441.636v.016c-.305,0-.456-.32-.457-.652Z" transform="translate(-1496.914 -314.962)" fill="#211e1f"/>
      <path id="Path_109" data-name="Path 109" d="M1630.1,322.74l0,0v-.69a.152.152,0,0,0-.16-.173h-.04v-.055c.086,0,.171.007.257.007s.151-.007.226-.007v.055h-.028c-.077,0-.164.015-.164.233v.837a1.189,1.189,0,0,0,.011.186h-.07l-.947-1.056v.758c0,.16.031.215.173.215h.031v.055c-.079,0-.158-.007-.237-.007s-.168.007-.25.007v-.055h.026c.127,0,.165-.086.165-.233v-.775a.165.165,0,0,0-.167-.165h-.024v-.055c.07,0,.142.007.211.007s.108-.007.164-.007l.818.921Z" transform="translate(-1608.137 -317.715)" fill="#211e1f"/>
      <path id="Path_110" data-name="Path 110" d="M1629.606,322.528l-.076,0-.933-1.04v.737c0,.16.026.205.164.207h.04v.071h-.008c-.08,0-.159-.007-.237-.007s-.167.007-.25.007h-.008v-.071h.034c.121,0,.156-.078.158-.225v-.775a.157.157,0,0,0-.16-.157h-.032V321.2h.008c.071,0,.142.007.212.007s.108-.007.17,0l.808.91v-.676c0-.146-.1-.164-.152-.165h-.048V321.2h.008c.087,0,.171.007.257.007s.151-.007.227-.007h.008v.071h-.036c-.076,0-.154.009-.156.226v.837a1.2,1.2,0,0,0,.01.185v.009h-.009Zm-.07-.016h.06a1.262,1.262,0,0,1-.009-.178V321.5c0-.221.093-.241.172-.242h.02v-.039c-.073,0-.145.007-.219.007s-.166-.007-.249-.007v.039h.032a.161.161,0,0,1,.168.181l0,.7,0,0-.006.006-.819-.925c-.054,0-.108.007-.164.007s-.137-.007-.2-.007v.039h.016a.174.174,0,0,1,.175.174v.775c0,.147-.041.241-.173.242h-.018v.039c.08,0,.162-.007.243-.007s.153.007.229.007v-.039h-.024c-.144,0-.18-.064-.18-.223v-.779l.955,1.068Zm-.037-.382h0l.006-.005Zm0,0h0Z" transform="translate(-1607.533 -317.105)" fill="#211e1f"/>
      <path id="Path_111" data-name="Path 111" d="M1744.733,319.267a.777.777,0,0,0-.04.143c0,.055.077.064.138.064h.021v.055c-.073,0-.149-.007-.223-.007s-.132,0-.2.007v-.055h.01a.166.166,0,0,0,.16-.12l.295-.844a1.507,1.507,0,0,0,.068-.228.955.955,0,0,0,.168-.079.038.038,0,0,1,.015,0c.005,0,.009,0,.013.006l.017.046.338.962c.022.064.044.132.068.188a.116.116,0,0,0,.121.073h.011v.055c-.083,0-.166-.007-.254-.007s-.182,0-.276.007v-.055h.021c.042,0,.114-.007.114-.053a.589.589,0,0,0-.037-.133l-.072-.213h-.417l-.059.191Zm.269-.815h0l-.171.521h.344Z" transform="translate(-1722.184 -314.142)" fill="#211e1f"/>
      <path id="Path_112" data-name="Path 112" d="M1745.09,318.938c-.083,0-.165-.007-.253-.007s-.182,0-.276.007h-.008v-.072h.028c.043,0,.106-.01.106-.045a.6.6,0,0,0-.037-.13l-.07-.208h-.406l-.057.186a.777.777,0,0,0-.04.141c0,.045.069.056.13.056h.028v.072h-.008c-.074,0-.149-.007-.222-.007s-.132,0-.2.007h-.008v-.072h.019a.159.159,0,0,0,.153-.114l.294-.844a2.425,2.425,0,0,0,.073-.233.973.973,0,0,0,.167-.079.049.049,0,0,1,.017,0,.021.021,0,0,1,.02.011c.005.014.011.031.017.046l.338.962c.022.065.044.133.068.187a.108.108,0,0,0,.114.068h.019v.072Zm-.521-.016h0c.091,0,.181-.007.268-.007s.166,0,.246.007v-.038h0a.126.126,0,0,1-.129-.079c-.024-.056-.046-.124-.068-.188l-.338-.962c-.006-.015-.011-.031-.016-.044s0,0,0,0h0l-.01,0a.706.706,0,0,1-.164.073,1.552,1.552,0,0,1-.068.23l-.294.844a.175.175,0,0,1-.167.125h0v.038c.063,0,.126-.007.19-.007s.144,0,.215.007v-.038h-.013c-.06,0-.144-.007-.146-.073a.761.761,0,0,1,.041-.146l.008,0-.008,0,.061-.2h.429l.074.219a.569.569,0,0,1,.037.135c0,.056-.08.06-.122.062h-.012v.039Zm-.376-.541h0l.176-.536h.01v.008h0v-.008h.006l.174.536Zm.022-.016h.322l-.16-.493-.162.493Zm.156-.51Z" transform="translate(-1721.561 -313.542)" fill="#211e1f"/>
      <path id="Path_113" data-name="Path 113" d="M1850.511,322.924c0,.074.051.1.11.1a1.33,1.33,0,0,0,.243,0,.263.263,0,0,0,.176-.1.419.419,0,0,0,.057-.133h.053c-.02.1-.046.208-.068.313-.161,0-.324-.007-.485-.007s-.324.007-.485.007v-.055h.025c.067,0,.139-.009.139-.123v-.945c0-.1-.072-.1-.139-.1h-.025v-.055c.1,0,.193.007.29.007s.186-.007.28-.007v.055h-.046c-.07,0-.124,0-.124.1v.949Z" transform="translate(-1826.518 -317.716)" fill="#211e1f"/>
      <path id="Path_114" data-name="Path 114" d="M1850.449,322.5c-.162,0-.324-.007-.485-.007s-.324.007-.486.007h-.008v-.071h.033c.067,0,.13-.006.13-.115v-.946c0-.089-.063-.1-.13-.1h-.033V321.2h.008c.1,0,.194.007.291.007s.185-.007.28-.007h.008v.071H1850c-.071,0-.116,0-.117.091v.949c0,.068.045.087.1.1.032,0,.067,0,.1,0a1.3,1.3,0,0,0,.139-.007.255.255,0,0,0,.171-.1.412.412,0,0,0,.056-.13l0-.006h.069l0,.01c-.021.105-.046.208-.068.313l0,.006Zm-.007-.016h0c.021-.1.045-.2.065-.3h-.038a.421.421,0,0,1-.057.13.272.272,0,0,1-.182.1,1.388,1.388,0,0,1-.141.008c-.036,0-.07,0-.1,0-.06-.007-.118-.032-.117-.111v-.949c0-.1.065-.107.133-.107h.038v-.039c-.091,0-.18.007-.271.007s-.188-.007-.283-.007v.039h.018c.066,0,.146.011.146.113v.946c0,.119-.08.131-.146.131h-.018v.039c.159,0,.318-.007.478-.007s.32.007.479.007Z" transform="translate(-1825.884 -317.106)" fill="#211e1f"/>
      <path id="Path_115" data-name="Path 115" d="M1914.823,317.72a.194.194,0,1,1-.194.194A.19.19,0,0,1,1914.823,317.72Zm0,.351h0a.158.158,0,1,0-.154-.157A.156.156,0,0,0,1914.823,318.071Zm-.1-.055h0v-.01c.024,0,.028,0,.028-.017v-.143c0-.02,0-.027-.027-.026v-.01h.1c.034,0,.065.016.065.051a.061.061,0,0,1-.046.058l.032.044a.2.2,0,0,0,.043.046v.006h-.038c-.018,0-.034-.038-.07-.089h-.021v.064c0,.013,0,.012.028.015v.01h-.094Zm.065-.1h.023c.025,0,.037-.019.037-.049a.036.036,0,0,0-.038-.042h-.021Z" transform="translate(-1890.212 -313.668)" fill="#211e1f"/>
      <path id="Path_116" data-name="Path 116" d="M4.753,6.427a3.34,3.34,0,0,0,3.36-3.186A3.282,3.282,0,0,0,4.753,0H3.241A3.17,3.17,0,0,0,0,3.242,3.22,3.22,0,0,0,3.241,6.427Z" transform="translate(0 0)" fill="#0079be"/>
      <path id="Path_117" data-name="Path 117" d="M27.012,20.83a2.942,2.942,0,1,0,2.942,2.942A2.942,2.942,0,0,0,27.012,20.83Zm-1.864,2.942h0a1.868,1.868,0,0,1,1.2-1.74v3.48A1.867,1.867,0,0,1,25.148,23.772Zm2.532,1.741h0V22.032a1.864,1.864,0,0,1,0,3.481Z" transform="translate(-23.764 -20.564)" fill="#fff"/>
      <path id="Path_118" data-name="Path 118" d="M692.912,79.386c0-.3-.159-.284-.31-.287v-.088c.132.007.267.007.4.007s.335-.007.585-.007a1.231,1.231,0,0,1,1.352,1.183c0,.335-.2,1.176-1.392,1.176-.172,0-.331-.007-.49-.007s-.3,0-.453.007v-.088c.2-.02.3-.027.311-.257V79.386Zm.331,1.586h0c0,.26.186.291.352.291a.942.942,0,0,0,.97-1.055,1.016,1.016,0,0,0-1.058-1.088c-.139,0-.2.01-.264.014v1.839Z" transform="translate(-683.768 -78.003)" fill="#211e1f"/>
      <path id="Path_119" data-name="Path 119" d="M885.022,78.389h.064c.095,0,.162,0,.162-.112v-.916c0-.149-.051-.169-.176-.236v-.054c.159-.048.348-.111.361-.122a.121.121,0,0,1,.061-.017c.017,0,.024.02.024.048v1.3c0,.112.074.112.169.112h.057v.088c-.115,0-.233-.007-.355-.007s-.243,0-.368.007v-.088Zm.362-1.978h0a.166.166,0,0,1,0-.332.166.166,0,0,1,.166.163A.169.169,0,0,1,885.383,76.412Z" transform="translate(-873.736 -75.11)" fill="#211e1f"/>
      <path id="Path_120" data-name="Path 120" d="M949.632,143.341c0-.125-.037-.159-.2-.223v-.064a4.525,4.525,0,0,0,.446-.162c.01,0,.02.007.02.034v.22a.991.991,0,0,1,.585-.254c.287,0,.388.21.388.473v.872c0,.112.074.112.169.112h.061v.088c-.119,0-.237-.007-.358-.007s-.244,0-.365.007v-.088h.061c.095,0,.162,0,.162-.112v-.875c0-.193-.118-.287-.311-.287a.9.9,0,0,0-.392.162v1c0,.112.075.112.17.112h.061v.088c-.118,0-.237-.007-.358-.007s-.243,0-.365.007v-.088h.061c.095,0,.162,0,.162-.112v-.9Z" transform="translate(-937.302 -141.069)" fill="#211e1f"/>
      <path id="Path_121" data-name="Path 121" d="M1081.668,143.5a.814.814,0,0,0,0,.2.565.565,0,0,0,.5.585.648.648,0,0,0,.457-.226l.047.047a.793.793,0,0,1-.625.382.679.679,0,0,1-.646-.737c0-.663.446-.859.682-.859a.537.537,0,0,1,.571.531.41.41,0,0,1,0,.061l-.031.02Zm.6-.108h0c.084,0,.094-.044.094-.084a.287.287,0,0,0-.294-.311c-.206,0-.348.152-.389.4Z" transform="translate(-1067.607 -141.068)" fill="#211e1f"/>
      <path id="Path_122" data-name="Path 122" d="M1185.82,144.347h.091c.094,0,.162,0,.162-.112v-.95c0-.1-.125-.125-.176-.152v-.051c.247-.1.382-.193.413-.193s.03.01.03.044v.3h.007c.084-.132.226-.348.432-.348a.184.184,0,0,1,.193.179.164.164,0,0,1-.159.173c-.105,0-.105-.081-.223-.081a.285.285,0,0,0-.247.281v.794c0,.112.068.112.162.112h.189v.088c-.186,0-.327-.007-.473-.007s-.281,0-.4.007v-.088Z" transform="translate(-1170.698 -141.068)" fill="#211e1f"/>
      <path id="Path_123" data-name="Path 123" d="M1283.14,143.966a.445.445,0,0,0,.426.413.239.239,0,0,0,.273-.24c0-.4-.737-.27-.737-.815a.465.465,0,0,1,.524-.433.887.887,0,0,1,.385.1l.024.344h-.078a.347.347,0,0,0-.368-.335.237.237,0,0,0-.263.223c0,.4.784.274.784.8,0,.223-.179.46-.581.46a.891.891,0,0,1-.412-.115l-.037-.389.061-.017Z" transform="translate(-1266.716 -141.069)" fill="#211e1f"/>
      <path id="Path_124" data-name="Path 124" d="M1439.72,75.683h-.084a.643.643,0,0,0-.723-.554.963.963,0,0,0-.953,1.071,1.1,1.1,0,0,0,1.007,1.173.687.687,0,0,0,.679-.585l.078.02-.078.494a1.893,1.893,0,0,1-.747.179,1.2,1.2,0,0,1-1.291-1.271,1.243,1.243,0,0,1,1.281-1.19,2.439,2.439,0,0,1,.8.18l.034.483Z" transform="translate(-1419.275 -74.063)" fill="#211e1f"/>
      <path id="Path_125" data-name="Path 125" d="M1612.778,64h.064c.095,0,.162,0,.162-.112V62.011c0-.22-.051-.227-.179-.264v-.054a2.155,2.155,0,0,0,.348-.145.35.35,0,0,1,.074-.037c.021,0,.027.02.027.048v2.336c0,.112.074.112.169.112h.057v.088c-.115,0-.233-.007-.355-.007s-.243,0-.368.007V64Z" transform="translate(-1592.211 -60.726)" fill="#211e1f"/>
      <path id="Path_126" data-name="Path 126" d="M1670.957,148.186c0,.061.037.064.094.064.041,0,.091,0,.135,0v.071a3.45,3.45,0,0,0-.487.1l-.017-.01v-.274a.912.912,0,0,1-.6.284.364.364,0,0,1-.372-.4v-.866c0-.088-.013-.172-.2-.189V146.9c.122,0,.392-.024.436-.024s.038.024.038.1v.872c0,.1,0,.392.294.392a.754.754,0,0,0,.409-.206v-.91c0-.067-.162-.1-.283-.138v-.061c.3-.02.493-.047.527-.047s.027.024.027.061v1.247Z" transform="translate(-1648.219 -145.005)" fill="#211e1f"/>
      <path id="Path_127" data-name="Path 127" d="M1800.867,62.791a.854.854,0,0,1,.5-.243.658.658,0,0,1,.628.71.853.853,0,0,1-.808.886,1,1,0,0,1-.47-.118l-.1.078-.071-.037a4.008,4.008,0,0,0,.047-.6V62.011c0-.22-.051-.227-.179-.264v-.054a2.135,2.135,0,0,0,.348-.146.349.349,0,0,1,.075-.037c.02,0,.027.02.027.048v1.234h0Zm0,.919h0a.364.364,0,0,0,.348.345c.362,0,.514-.355.514-.656a.645.645,0,0,0-.541-.669.52.52,0,0,0-.321.159v.821Z" transform="translate(-1777.457 -60.726)" fill="#211e1f"/>
      <path id="Path_128" data-name="Path 128" d="M692.3,323.048h.026c.066,0,.136-.009.136-.1v-.964c0-.1-.07-.1-.136-.1H692.3v-.055c.072,0,.182.007.273.007s.2-.007.288-.007v.055h-.026c-.066,0-.136.009-.136.1v.964c0,.1.07.1.136.1h.026v.055c-.088,0-.2-.007-.29-.007s-.2.007-.271.007v-.055Z" transform="translate(-683.47 -317.716)" fill="#211e1f"/>
      <path id="Path_129" data-name="Path 129" d="M692.253,322.48c-.089,0-.2-.007-.291-.007s-.2.007-.27.007h-.008v-.071h.034c.067,0,.127-.007.128-.1v-.964c0-.09-.061-.1-.128-.1h-.034v-.071h.008c.072,0,.182.007.272.007s.2-.007.289-.007h.008v.071h-.034c-.067,0-.128.007-.128.1v.964c0,.09.062.1.128.1h.034v.071Zm-.008-.016h0v-.039h-.018c-.066,0-.144-.011-.144-.113v-.964c0-.1.079-.113.144-.113h.018V321.2c-.085,0-.191.007-.281.007s-.193-.007-.264-.007v.039h.018c.065,0,.144.011.144.113v.964c0,.1-.078.113-.144.113H691.7v.039c.071,0,.175-.007.262-.007s.2.007.283.007Z" transform="translate(-682.863 -317.084)" fill="#211e1f"/>
      <path id="Path_130" data-name="Path 130" d="M742.956,322.74l0,0v-.69a.152.152,0,0,0-.16-.173h-.041v-.055c.087,0,.171.007.258.007s.151-.007.226-.007v.055h-.028c-.077,0-.164.015-.164.233v.837a1.22,1.22,0,0,0,.011.186h-.07l-.947-1.056v.758c0,.16.031.215.173.215h.031v.055c-.079,0-.158-.007-.237-.007s-.167.007-.25.007v-.055h.026c.127,0,.165-.086.165-.233v-.775a.165.165,0,0,0-.167-.165h-.024v-.055c.07,0,.142.007.211.007s.109-.007.164-.007l.819.921Z" transform="translate(-732.302 -317.715)" fill="#211e1f"/>
      <path id="Path_131" data-name="Path 131" d="M742.424,322.528l-.076,0-.933-1.04v.737c0,.16.026.205.165.207h.039v.071h-.008c-.08,0-.159-.007-.237-.007s-.167.007-.25.007h-.008v-.071h.034c.122,0,.156-.079.158-.225v-.775a.158.158,0,0,0-.159-.158h-.032V321.2h.008c.07,0,.142.007.211.007s.108-.007.17,0l.808.91v-.676c0-.146-.1-.164-.152-.165h-.049V321.2h.008c.087,0,.172.007.257.007s.15-.007.226-.007h.008v.071h-.035c-.076,0-.154.009-.156.226v.837a1.209,1.209,0,0,0,.011.184l0,.009h-.01Zm-.07-.016h.061a1.234,1.234,0,0,1-.01-.178V321.5c0-.221.092-.242.172-.242h.019v-.039c-.072,0-.145.007-.218.007s-.166-.007-.249-.007v.039h.033a.161.161,0,0,1,.168.181l0,.7,0,0-.006.006-.818-.925c-.055,0-.108.007-.164.007s-.136-.007-.2-.007v.039h.016a.173.173,0,0,1,.175.174v.775c0,.147-.041.241-.173.242h-.018v.04c.08,0,.162-.007.242-.007s.153.007.229.007v-.039h-.023c-.145,0-.181-.063-.181-.223v-.779l.955,1.068Zm-.037-.382h0l.006-.005Zm0,0h0Z" transform="translate(-731.665 -317.105)" fill="#211e1f"/>
      <path id="Path_132" data-name="Path 132" d="M861.945,317.49c-.138,0-.143.033-.171.167h-.055c.007-.051.016-.1.022-.156a1.091,1.091,0,0,0,.011-.156h.044c.015.055.061.053.111.053h.949c.05,0,.1,0,.1-.057l.044.007c-.007.05-.015.1-.02.149s0,.1,0,.149l-.055.021c0-.068-.013-.177-.136-.177h-.3v.979c0,.142.064.158.152.158h.035v.055c-.072,0-.2-.007-.3-.007s-.239.007-.311.007v-.055h.035c.1,0,.153-.009.153-.154v-.982Z" transform="translate(-850.73 -313.294)" fill="#211e1f"/>
      <path id="Path_133" data-name="Path 133" d="M861.96,317.967c-.072,0-.2-.007-.3-.007s-.239.007-.311.007h-.008V317.9h.043c.1,0,.142,0,.144-.146v-.974h-.294v-.016h.31v.991c0,.148-.059.162-.16.163h-.027v.039c.073,0,.2-.007.3-.007s.219.007.292.007v-.039h-.027c-.089,0-.16-.022-.16-.166v-.987h.31c.123,0,.14.105.144.174l.04-.015c0-.048,0-.1,0-.145s.012-.094.019-.141l-.028,0c-.008.054-.06.056-.107.056h-.958c-.043,0-.091,0-.107-.053h-.03a1.083,1.083,0,0,1-.011.149c-.005.051-.014.1-.021.148h.039c.024-.128.04-.17.177-.168v.016c-.136,0-.133.025-.163.161v.006H861v-.01c.007-.052.017-.1.022-.156a1.039,1.039,0,0,0,.011-.155v-.008h.058v.006c.013.046.047.047.093.047h.958c.051,0,.089,0,.092-.05v-.009l.008,0,.052.008v.008c-.007.049-.015.1-.02.148s0,.1,0,.148v.006l-.005,0-.065.024v-.011c0-.069-.012-.169-.128-.169h-.294v.971c0,.139.057.148.144.15h.043v.071Z" transform="translate(-850.02 -312.571)" fill="#211e1f"/>
      <path id="Path_134" data-name="Path 134" d="M966.691,323.048h.026c.066,0,.136-.009.136-.1v-.964c0-.1-.07-.1-.136-.1h-.026v-.055c.112,0,.3.007.458.007s.346-.007.471-.007c0,.079,0,.2,0,.281l-.055.015c-.009-.119-.031-.215-.224-.215h-.255v.482h.219c.11,0,.134-.062.145-.162h.055q-.005.108-.005.215c0,.07,0,.14.005.21l-.055.011c-.011-.11-.016-.182-.143-.182h-.22v.428c0,.12.106.12.224.12.221,0,.318-.015.373-.224l.052.013c-.024.1-.046.2-.062.293-.118,0-.329-.007-.495-.007s-.384.007-.489.007v-.055Z" transform="translate(-954.363 -317.716)" fill="#211e1f"/>
      <path id="Path_135" data-name="Path 135" d="M967.073,322.5c-.118,0-.33-.008-.495-.008s-.384.008-.489.008h-.008v-.071h.034c.067,0,.127-.007.128-.1v-.964c0-.09-.061-.1-.128-.1h-.034V321.2h.008c.112,0,.3.007.458.007s.345-.007.471-.007h.008v.008c0,.028,0,.06,0,.1,0,.064,0,.133.005.186v.007l-.006,0-.065.017v-.009c-.011-.119-.027-.206-.216-.208h-.248v.466h.211c.106,0,.125-.055.137-.154V321.6h.07v.008c0,.072-.006.143-.006.215s0,.139.006.209v.007l-.007,0-.064.013v-.009c-.013-.112-.014-.174-.136-.175h-.213v.421c0,.112.1.111.216.112.221,0,.31-.012.366-.219l0-.007h.008l.059.015,0,.008c-.024.1-.046.195-.062.292l0,.007Zm-.007-.016h0c.016-.093.037-.186.06-.278l-.036-.009c-.055.206-.162.224-.379.223-.116,0-.232,0-.232-.128v-.436h.229c.128,0,.142.076.151.181l.04-.008c0-.068-.005-.136-.005-.2s0-.138.005-.207h-.04c-.01.1-.04.163-.152.162h-.227v-.5h.264c.191,0,.223.1.231.213l.04-.011c0-.052-.005-.118-.005-.18,0-.031,0-.061,0-.087-.125,0-.311.007-.463.007s-.337-.007-.45-.007v.039h.018c.066,0,.144.011.144.113v.964c0,.1-.078.113-.144.113H966.1v.039c.107,0,.32-.007.481-.007s.369.007.488.007Z" transform="translate(-953.761 -317.105)" fill="#211e1f"/>
      <path id="Path_136" data-name="Path 136" d="M1055.524,322.005c0-.134-.073-.14-.131-.14h-.033v-.055c.059,0,.173.007.285.007s.2-.007.3-.007c.231,0,.438.063.438.324a.347.347,0,0,1-.256.324l.314.471a.2.2,0,0,0,.178.11v.055c-.061,0-.12-.007-.18-.007s-.116.007-.173.007a5.155,5.155,0,0,1-.383-.6h-.121v.394c0,.142.066.147.151.147h.033v.055c-.105,0-.211-.007-.316-.007-.088,0-.175.007-.267.007v-.055h.033c.068,0,.131-.031.131-.1v-.935Zm.236.427h.09c.184,0,.283-.07.283-.287a.251.251,0,0,0-.268-.268.924.924,0,0,0-.1.007Z" transform="translate(-1041.901 -317.706)" fill="#211e1f"/>
      <path id="Path_137" data-name="Path 137" d="M1055.992,322.483c-.062,0-.12-.007-.181-.007s-.115.007-.179,0a5.146,5.146,0,0,1-.381-.593h-.109v.385c0,.138.057.137.143.139h.041v.071h-.008c-.105,0-.212-.007-.316-.007-.088,0-.174.007-.266.007h-.008v-.071h.041c.066,0,.122-.029.122-.091v-.934c0-.131-.065-.13-.122-.132h-.041v-.071h.008c.06,0,.173.007.285.007s.2-.007.3-.007c.232,0,.445.065.446.332a.352.352,0,0,1-.252.328l.309.463a.2.2,0,0,0,.173.107H1056v.07Zm-.857-.612h.126l0,0a5.718,5.718,0,0,0,.376.592c.056,0,.115-.008.172-.008s.115.006.173.007v-.04a.21.21,0,0,1-.177-.113l-.32-.479.009,0a.339.339,0,0,0,.25-.317c0-.255-.2-.314-.429-.315-.1,0-.185.007-.3.007s-.217-.007-.277-.007v.039h.025c.057,0,.139.01.139.148v.935c0,.074-.069.107-.139.108h-.025v.039c.089,0,.172-.007.259-.007.1,0,.207.007.308.007v-.039h-.025c-.084,0-.159-.011-.159-.156v-.4Zm0-.051h-.008v-.563h.007a.906.906,0,0,1,.106-.007.26.26,0,0,1,.277.277c0,.22-.106.294-.291.294Zm.09-.016h0c.182,0,.274-.065.276-.279a.244.244,0,0,0-.261-.261.772.772,0,0,0-.1.007v.533Z" transform="translate(-1041.277 -317.087)" fill="#211e1f"/>
      <path id="Path_138" data-name="Path 138" d="M1159.365,322.74l0,0v-.69a.151.151,0,0,0-.16-.173h-.04v-.055c.086,0,.171.007.257.007s.151-.007.227-.007v.055h-.028c-.077,0-.164.015-.164.233v.837a1.221,1.221,0,0,0,.011.186h-.07l-.947-1.056v.758c0,.16.031.215.173.215h.031v.055c-.079,0-.158-.007-.237-.007s-.168.007-.25.007v-.055h.026c.127,0,.166-.086.166-.233v-.775a.165.165,0,0,0-.167-.165h-.024v-.055c.07,0,.142.007.211.007s.108-.007.164-.007l.818.921Z" transform="translate(-1143.401 -317.715)" fill="#211e1f"/>
      <path id="Path_139" data-name="Path 139" d="M1158.829,322.508l-.076,0-.933-1.04v.737c0,.16.026.205.165.207h.039v.071h-.008c-.08,0-.158-.008-.237-.008s-.167.008-.25.008h-.008v-.071h.034c.121,0,.156-.079.157-.226v-.774a.157.157,0,0,0-.159-.157h-.032v-.071h.008c.07,0,.142.007.211.007.054,0,.107-.007.169,0l.808.91v-.677c0-.146-.1-.164-.152-.165h-.049v-.071h.008c.087,0,.172.007.258.007s.15-.007.226-.007h.008v.071h-.035c-.076,0-.154.009-.156.226v.837a1.16,1.16,0,0,0,.011.185v.009Zm-.07-.016h.06a1.26,1.26,0,0,1-.01-.178v-.837c0-.221.093-.241.172-.242H1159V321.2c-.072,0-.145.007-.218.007s-.166-.007-.25-.007v.039h.033a.161.161,0,0,1,.168.181l0,.7,0,0-.006.006-.818-.925c-.055,0-.108.007-.163.007s-.137-.007-.2-.007v.039h.016a.174.174,0,0,1,.175.174v.774c0,.148-.042.242-.173.242h-.018v.039c.079,0,.161-.007.242-.007s.154.007.229.007v-.039h-.023c-.145,0-.181-.064-.181-.224v-.778l.955,1.068Zm-.037-.382h0l.006-.005Zm0,0h0Z" transform="translate(-1142.76 -317.085)" fill="#211e1f"/>
      <path id="Path_140" data-name="Path 140" d="M1273.956,319.267a.731.731,0,0,0-.041.143c0,.055.077.064.138.064h.021v.055c-.074,0-.149-.007-.223-.007s-.132,0-.2.007v-.055h.011a.166.166,0,0,0,.16-.12l.295-.844a1.569,1.569,0,0,0,.068-.228.941.941,0,0,0,.167-.079.041.041,0,0,1,.015,0,.013.013,0,0,1,.013.006c.005.015.011.031.017.046l.338.962c.022.064.044.132.068.188a.117.117,0,0,0,.122.073h.011v.055c-.083,0-.166-.007-.254-.007s-.182,0-.276.007v-.055h.02c.042,0,.114-.007.114-.053a.589.589,0,0,0-.037-.133l-.072-.213h-.417l-.059.191Zm.268-.815h0l-.171.521h.344Z" transform="translate(-1257.41 -314.142)" fill="#211e1f"/>
      <path id="Path_141" data-name="Path 141" d="M1274.312,318.917c-.083,0-.165-.008-.253-.008s-.182,0-.276.008h-.008v-.072h.028c.043,0,.106-.01.106-.045a.585.585,0,0,0-.036-.13l-.07-.208h-.406l-.057.186a.771.771,0,0,0-.041.141c0,.045.069.056.13.056h.028v.072h-.008c-.074,0-.149-.008-.222-.008s-.132,0-.2.008h-.009v-.072h.019a.158.158,0,0,0,.152-.114l.294-.844a2.135,2.135,0,0,0,.073-.233.934.934,0,0,0,.167-.079.052.052,0,0,1,.018,0,.023.023,0,0,1,.02.011l.017.046.339.962c.022.065.044.133.068.187a.108.108,0,0,0,.114.069h.019v.072Zm-.521-.016h0c.091,0,.18-.007.268-.007s.165,0,.245.007v-.038h0a.125.125,0,0,1-.129-.079c-.024-.056-.046-.124-.068-.188l-.339-.962c-.006-.015-.011-.031-.016-.044s0,0,0,0h0l-.011,0a.683.683,0,0,1-.164.074,1.506,1.506,0,0,1-.068.23l-.294.844a.175.175,0,0,1-.167.125h0v.038c.063,0,.127-.007.191-.007s.144,0,.214.007v-.038h-.012c-.06,0-.143-.008-.146-.072a.733.733,0,0,1,.041-.146l.008,0-.008,0,.061-.2h.429l.074.219a.557.557,0,0,1,.037.135c0,.056-.08.06-.122.062h-.012v.038Zm-.376-.541h0l.176-.536h.01v.008h0v-.008h.005l.175.536Zm.022-.016h.322l-.16-.493Zm.156-.51Z" transform="translate(-1256.786 -313.521)" fill="#211e1f"/>
      <path id="Path_142" data-name="Path 142" d="M1363.125,317.49c-.138,0-.144.033-.171.167h-.055c.007-.051.017-.1.022-.156a1.1,1.1,0,0,0,.011-.156h.044c.015.055.061.053.11.053h.949c.049,0,.1,0,.1-.057l.044.007c-.007.05-.014.1-.02.149s0,.1,0,.149l-.055.021c0-.068-.013-.177-.136-.177h-.3v.979c0,.142.065.158.152.158h.035v.055c-.072,0-.2-.007-.3-.007s-.239.007-.311.007v-.055h.035c.1,0,.153-.009.153-.154v-.982Z" transform="translate(-1345.517 -313.294)" fill="#211e1f"/>
      <path id="Path_143" data-name="Path 143" d="M1363.127,317.968c-.072,0-.2-.007-.3-.007s-.239.007-.311.007h-.008V317.9h.043c.1,0,.142,0,.145-.146v-.974h-.293v-.016h.309v.991c0,.148-.06.162-.161.162h-.027v.039c.073,0,.2-.007.3-.007s.219.007.292.007v-.039h-.027c-.089,0-.16-.022-.16-.166v-.987h.31c.123,0,.14.105.143.174l.04-.015c0-.048,0-.1,0-.144s.012-.095.019-.141l-.028,0c-.008.054-.06.057-.106.056h-.958c-.043,0-.09,0-.107-.054h-.03a1.094,1.094,0,0,1-.011.149c0,.051-.014.1-.021.148h.039c.024-.128.04-.17.178-.168v.016c-.136,0-.133.025-.163.161v.006h-.071v-.009c.008-.052.017-.1.022-.156a1.057,1.057,0,0,0,.011-.155v-.008h.058l0,.006c.013.046.046.047.093.047h.959c.051,0,.088,0,.091-.05v-.009l.009,0,.052.008v.008c-.008.049-.015.1-.02.148s0,.1,0,.148v.006l-.005,0-.065.024v-.011c0-.069-.012-.169-.128-.169h-.294v.971c0,.139.057.148.144.15h.043v.071Z" transform="translate(-1344.795 -312.572)" fill="#211e1f"/>
      <path id="Path_144" data-name="Path 144" d="M1468.59,323.048h.026c.066,0,.136-.009.136-.1v-.964c0-.1-.069-.1-.136-.1h-.026v-.055c.072,0,.182.007.272.007s.2-.007.289-.007v.055h-.026c-.066,0-.136.009-.136.1v.964c0,.1.07.1.136.1h.026v.055c-.088,0-.2-.007-.29-.007s-.2.007-.271.007Z" transform="translate(-1449.861 -317.716)" fill="#211e1f"/>
      <path id="Path_145" data-name="Path 145" d="M1468.53,322.5c-.089,0-.2-.008-.291-.008s-.2.008-.27.008h-.008v-.071h.034c.066,0,.127-.007.128-.1v-.964c0-.09-.061-.1-.128-.1h-.034V321.2h.008c.072,0,.182.007.272.007s.2-.007.289-.007h.008v.071h-.034c-.067,0-.127.007-.128.1v.964c0,.09.061.1.128.1h.034v.071Zm-.008-.016h0v-.039h-.018c-.066,0-.144-.012-.144-.113v-.964c0-.1.078-.113.144-.113h.018v-.039c-.085,0-.191.007-.281.007s-.193-.007-.264-.007v.039h.018c.065,0,.144.012.144.113v.964c0,.1-.079.113-.144.113h-.018v.039c.071,0,.175-.007.262-.007s.2.007.282.007Z" transform="translate(-1449.24 -317.105)" fill="#211e1f"/>
      <path id="Path_146" data-name="Path 146" d="M1517.579,319.66a.645.645,0,0,1,.7.635.674.674,0,0,1-.695.7.65.65,0,0,1-.688-.66.669.669,0,0,1,.678-.679Zm.028,1.258h0c.357,0,.419-.315.419-.583s-.145-.594-.45-.594c-.322,0-.417.287-.417.533,0,.329.151.644.449.644Z" transform="translate(-1497.556 -315.583)" fill="#211e1f"/>
      <path id="Path_147" data-name="Path 147" d="M1516.25,319.717a.678.678,0,0,1,.687-.687v.016a.662.662,0,0,0-.671.671.642.642,0,0,0,.68.652.667.667,0,0,0,.688-.7.638.638,0,0,0-.7-.627v-.016a.654.654,0,0,1,.713.642.684.684,0,0,1-.7.712.659.659,0,0,1-.7-.668h0Zm.258-.065h0c0-.247.1-.541.425-.541.312,0,.458.332.458.6s-.064.591-.427.591v-.016c.35,0,.41-.307.411-.575s-.144-.586-.443-.586c-.316,0-.409.28-.41.525,0,.328.15.635.441.636v.016c-.305,0-.456-.32-.457-.652Z" transform="translate(-1496.914 -314.962)" fill="#211e1f"/>
      <path id="Path_148" data-name="Path 148" d="M1630.1,322.74l0,0v-.69a.152.152,0,0,0-.16-.173h-.04v-.055c.086,0,.171.007.257.007s.151-.007.226-.007v.055h-.028c-.077,0-.164.015-.164.233v.837a1.189,1.189,0,0,0,.011.186h-.07l-.947-1.056v.758c0,.16.031.215.173.215h.031v.055c-.079,0-.158-.007-.237-.007s-.168.007-.25.007v-.055h.026c.127,0,.165-.086.165-.233v-.775a.165.165,0,0,0-.167-.165h-.024v-.055c.07,0,.142.007.211.007s.108-.007.164-.007l.818.921Z" transform="translate(-1608.137 -317.715)" fill="#211e1f"/>
      <path id="Path_149" data-name="Path 149" d="M1629.606,322.528l-.076,0-.933-1.04v.737c0,.16.026.205.164.207h.04v.071h-.008c-.08,0-.159-.007-.237-.007s-.167.007-.25.007h-.008v-.071h.034c.121,0,.156-.078.158-.225v-.775a.157.157,0,0,0-.16-.157h-.032V321.2h.008c.071,0,.142.007.212.007s.108-.007.17,0l.808.91v-.676c0-.146-.1-.164-.152-.165h-.048V321.2h.008c.087,0,.171.007.257.007s.151-.007.227-.007h.008v.071h-.036c-.076,0-.154.009-.156.226v.837a1.2,1.2,0,0,0,.01.185v.009h-.009Zm-.07-.016h.06a1.262,1.262,0,0,1-.009-.178V321.5c0-.221.093-.241.172-.242h.02v-.039c-.073,0-.145.007-.219.007s-.166-.007-.249-.007v.039h.032a.161.161,0,0,1,.168.181l0,.7,0,0-.006.006-.819-.925c-.054,0-.108.007-.164.007s-.137-.007-.2-.007v.039h.016a.174.174,0,0,1,.175.174v.775c0,.147-.041.241-.173.242h-.018v.039c.08,0,.162-.007.243-.007s.153.007.229.007v-.039h-.024c-.144,0-.18-.064-.18-.223v-.779l.955,1.068Zm-.037-.382h0l.006-.005Zm0,0h0Z" transform="translate(-1607.533 -317.105)" fill="#211e1f"/>
      <path id="Path_150" data-name="Path 150" d="M1744.733,319.267a.777.777,0,0,0-.04.143c0,.055.077.064.138.064h.021v.055c-.073,0-.149-.007-.223-.007s-.132,0-.2.007v-.055h.01a.166.166,0,0,0,.16-.12l.295-.844a1.507,1.507,0,0,0,.068-.228.955.955,0,0,0,.168-.079.038.038,0,0,1,.015,0c.005,0,.009,0,.013.006l.017.046.338.962c.022.064.044.132.068.188a.116.116,0,0,0,.121.073h.011v.055c-.083,0-.166-.007-.254-.007s-.182,0-.276.007v-.055h.021c.042,0,.114-.007.114-.053a.589.589,0,0,0-.037-.133l-.072-.213h-.417l-.059.191Zm.269-.815h0l-.171.521h.344Z" transform="translate(-1722.184 -314.142)" fill="#211e1f"/>
      <path id="Path_151" data-name="Path 151" d="M1745.09,318.938c-.083,0-.165-.007-.253-.007s-.182,0-.276.007h-.008v-.072h.028c.043,0,.106-.01.106-.045a.6.6,0,0,0-.037-.13l-.07-.208h-.406l-.057.186a.777.777,0,0,0-.04.141c0,.045.069.056.13.056h.028v.072h-.008c-.074,0-.149-.007-.222-.007s-.132,0-.2.007h-.008v-.072h.019a.159.159,0,0,0,.153-.114l.294-.844a2.425,2.425,0,0,0,.073-.233.973.973,0,0,0,.167-.079.049.049,0,0,1,.017,0,.021.021,0,0,1,.02.011c.005.014.011.031.017.046l.338.962c.022.065.044.133.068.187a.108.108,0,0,0,.114.068h.019v.072Zm-.521-.016h0c.091,0,.181-.007.268-.007s.166,0,.246.007v-.038h0a.126.126,0,0,1-.129-.079c-.024-.056-.046-.124-.068-.188l-.338-.962c-.006-.015-.011-.031-.016-.044s0,0,0,0h0l-.01,0a.706.706,0,0,1-.164.073,1.552,1.552,0,0,1-.068.23l-.294.844a.175.175,0,0,1-.167.125h0v.038c.063,0,.126-.007.19-.007s.144,0,.215.007v-.038h-.013c-.06,0-.144-.007-.146-.073a.761.761,0,0,1,.041-.146l.008,0-.008,0,.061-.2h.429l.074.219a.569.569,0,0,1,.037.135c0,.056-.08.06-.122.062h-.012v.039Zm-.376-.541h0l.176-.536h.01v.008h0v-.008h.006l.174.536Zm.022-.016h.322l-.16-.493-.162.493Zm.156-.51Z" transform="translate(-1721.561 -313.542)" fill="#211e1f"/>
      <path id="Path_152" data-name="Path 152" d="M1850.511,322.924c0,.074.051.1.11.1a1.33,1.33,0,0,0,.243,0,.263.263,0,0,0,.176-.1.419.419,0,0,0,.057-.133h.053c-.02.1-.046.208-.068.313-.161,0-.324-.007-.485-.007s-.324.007-.485.007v-.055h.025c.067,0,.139-.009.139-.123v-.945c0-.1-.072-.1-.139-.1h-.025v-.055c.1,0,.193.007.29.007s.186-.007.28-.007v.055h-.046c-.07,0-.124,0-.124.1v.949Z" transform="translate(-1826.518 -317.716)" fill="#211e1f"/>
      <path id="Path_153" data-name="Path 153" d="M1850.449,322.5c-.162,0-.324-.007-.485-.007s-.324.007-.486.007h-.008v-.071h.033c.067,0,.13-.006.13-.115v-.946c0-.089-.063-.1-.13-.1h-.033V321.2h.008c.1,0,.194.007.291.007s.185-.007.28-.007h.008v.071H1850c-.071,0-.116,0-.117.091v.949c0,.068.045.087.1.1.032,0,.067,0,.1,0a1.3,1.3,0,0,0,.139-.007.255.255,0,0,0,.171-.1.412.412,0,0,0,.056-.13l0-.006h.069l0,.01c-.021.105-.046.208-.068.313l0,.006Zm-.007-.016h0c.021-.1.045-.2.065-.3h-.038a.421.421,0,0,1-.057.13.272.272,0,0,1-.182.1,1.388,1.388,0,0,1-.141.008c-.036,0-.07,0-.1,0-.06-.007-.118-.032-.117-.111v-.949c0-.1.065-.107.133-.107h.038v-.039c-.091,0-.18.007-.271.007s-.188-.007-.283-.007v.039h.018c.066,0,.146.011.146.113v.946c0,.119-.08.131-.146.131h-.018v.039c.159,0,.318-.007.478-.007s.32.007.479.007Z" transform="translate(-1825.884 -317.106)" fill="#211e1f"/>
      <path id="Path_154" data-name="Path 154" d="M1914.823,317.72a.194.194,0,1,1-.194.194A.19.19,0,0,1,1914.823,317.72Zm0,.351h0a.158.158,0,1,0-.154-.157A.156.156,0,0,0,1914.823,318.071Zm-.1-.055h0v-.01c.024,0,.028,0,.028-.017v-.143c0-.02,0-.027-.027-.026v-.01h.1c.034,0,.065.016.065.051a.061.061,0,0,1-.046.058l.032.044a.2.2,0,0,0,.043.046v.006h-.038c-.018,0-.034-.038-.07-.089h-.021v.064c0,.013,0,.012.028.015v.01h-.094Zm.065-.1h.023c.025,0,.037-.019.037-.049a.036.036,0,0,0-.038-.042h-.021Z" transform="translate(-1890.212 -313.668)" fill="#211e1f"/>
    </g>
  </g>
</svg>
