<svg xmlns="http://www.w3.org/2000/svg" xmlns:xlink="http://www.w3.org/1999/xlink" width="35" height="21" viewBox="0 0 35 21">
  <defs>
    <clipPath id="clip-Discover">
      <rect width="35" height="21"/>
    </clipPath>
  </defs>
  <g id="Discover" clip-path="url(#clip-Discover)">
    <rect width="35" height="21" fill="#fff"/>
    <g id="mastercard" transform="translate(-0.432 -0.259)">
      <rect id="Rectangle_38" data-name="Rectangle 38" width="35" height="21" rx="6" transform="translate(0.432 0.259)" fill="#f6f8fa"/>
    </g>
    <g id="discover-svgrepo-com" transform="translate(-57.438 -188.888)">
      <path id="Path_161" data-name="Path 161" d="M355.649,197.26a2.2,2.2,0,0,1,2.261,2.127h0a2.265,2.265,0,0,1-4.521,0h0A2.2,2.2,0,0,1,355.649,197.26Z" transform="translate(-279.927)" fill="#f47216"/>
      <path id="Path_162" data-name="Path 162" d="M72.172,197.94a2.223,2.223,0,0,1,1.02.246v.918a1.428,1.428,0,0,0-1.039-.45,1.369,1.369,0,0,0-1.389,1.374,1.348,1.348,0,0,0,1.427,1.38,1.363,1.363,0,0,0,1-.438v.919a2.409,2.409,0,0,1-1.039.233,2.14,2.14,0,0,1-2.243-2.088A2.174,2.174,0,0,1,72.172,197.94Zm-3.919.025a1.927,1.927,0,0,1,1.249.444l-.434.535a.876.876,0,0,0-.668-.324c-.357,0-.617.191-.617.443,0,.216.146.33.643.5.943.325,1.222.612,1.222,1.248a1.336,1.336,0,0,1-1.466,1.314,1.678,1.678,0,0,1-1.471-.762l.535-.485a.988.988,0,0,0,.9.534.591.591,0,0,0,.644-.564.474.474,0,0,0-.249-.414,3.416,3.416,0,0,0-.573-.228c-.779-.264-1.046-.546-1.046-1.1A1.22,1.22,0,0,1,68.253,197.965Zm9.472.07h.905l1.133,2.687,1.148-2.687h.9l-1.836,4.1h-.446l-1.8-4.1Zm-12.155.006H66.4v4h-.829Zm16.615,0h2.351v.678H83.013v.888h1.466v.678H83.013v1.08h1.522v.677H82.185Zm4.665,2.315a1.081,1.081,0,0,0,.968-1.134c0-.749-.548-1.181-1.5-1.181H85.084v4h.828v-1.607h.108l1.147,1.607h1.019Zm-.695-.474h-.242v-1.212h.255c.516,0,.8.2.8.593S86.684,199.883,86.154,199.883Zm-23.248-1.842H61.69v4H62.9a2.3,2.3,0,0,0,1.516-.462,1.963,1.963,0,0,0,.771-1.536A2.061,2.061,0,0,0,62.907,198.041Zm.968,3.006a1.638,1.638,0,0,1-1.134.318h-.223v-2.646h.222a1.6,1.6,0,0,1,1.134.324,1.312,1.312,0,0,1,.459,1,1.337,1.337,0,0,1-.459,1.008Z" transform="translate(0 -0.653)"/>
    </g>
  </g>
</svg>
