<svg xmlns="http://www.w3.org/2000/svg" xmlns:xlink="http://www.w3.org/1999/xlink" width="35" height="21" viewBox="0 0 35 21">
  <defs>
    <linearGradient id="linear-gradient" x1="-0.575" y1="0.501" x2="2.324" y2="0.501" gradientUnits="objectBoundingBox">
      <stop offset="0" stop-color="#007940"/>
      <stop offset="0.228" stop-color="#00873f"/>
      <stop offset="0.743" stop-color="#40a737"/>
      <stop offset="1" stop-color="#5cb531"/>
    </linearGradient>
    <linearGradient id="linear-gradient-2" x1="0.002" y1="0.5" x2="1.003" y2="0.5" xlink:href="#linear-gradient"/>
    <linearGradient id="linear-gradient-3" x1="-0.628" y1="0.499" x2="2.537" y2="0.499" xlink:href="#linear-gradient"/>
    <linearGradient id="linear-gradient-4" x1="0.002" y1="0.5" x2="1.018" y2="0.5" gradientUnits="objectBoundingBox">
      <stop offset="0" stop-color="#1f286f"/>
      <stop offset="0.475" stop-color="#004e94"/>
      <stop offset="0.826" stop-color="#0066b1"/>
      <stop offset="1" stop-color="#006fbc"/>
    </linearGradient>
    <linearGradient id="linear-gradient-5" x1="-0.006" y1="0.499" x2="0.981" y2="0.499" gradientUnits="objectBoundingBox">
      <stop offset="0" stop-color="#6c2c2f"/>
      <stop offset="0.174" stop-color="#882730"/>
      <stop offset="0.573" stop-color="#be1833"/>
      <stop offset="0.859" stop-color="#dc0436"/>
      <stop offset="1" stop-color="#e60039"/>
    </linearGradient>
    <clipPath id="clip-JCB">
      <rect width="35" height="21"/>
    </clipPath>
  </defs>
  <g id="JCB" clip-path="url(#clip-JCB)">
    <rect width="35" height="21" fill="#fff"/>
    <g id="mastercard" transform="translate(-0.432 -0.259)">
      <rect id="Rectangle_38" data-name="Rectangle 38" width="35" height="21" rx="6" transform="translate(0.432 0.259)" fill="#f6f8fa"/>
    </g>
    <g id="jcb-svgrepo-com" transform="translate(9 4)">
      <path id="Path_163" data-name="Path 163" d="M17.65,10.853a2.744,2.744,0,0,1-2.74,2.74H0V2.74A2.744,2.744,0,0,1,2.74,0H17.65Z" fill="#fff"/>
      <path id="Path_164" data-name="Path 164" d="M185.584,103.06h1.133c.032,0,.108-.011.14-.011a.506.506,0,0,0,.4-.507.524.524,0,0,0-.4-.507.568.568,0,0,0-.14-.011h-1.133Z" transform="translate(-172.789 -94.99)" fill="url(#linear-gradient)"/>
      <path id="Path_165" data-name="Path 165" d="M173.475,13.3a1.964,1.964,0,0,0-1.964,1.964V17.3h2.773a1.108,1.108,0,0,1,.194.011c.626.032,1.09.356,1.09.917a.917.917,0,0,1-.9.9v.022c.637.043,1.122.4,1.122.949,0,.593-.539.982-1.252.982H171.5v3.992h2.881a1.964,1.964,0,0,0,1.964-1.964V13.3Z" transform="translate(-159.677 -12.384)" fill="url(#linear-gradient-2)"/>
      <path id="Path_166" data-name="Path 166" d="M187.116,80.279a.459.459,0,0,0-.4-.464c-.022,0-.076-.011-.108-.011h-1.025v.949h1.025a.3.3,0,0,0,.108-.011.459.459,0,0,0,.4-.464Z" transform="translate(-172.789 -74.302)" fill="url(#linear-gradient-3)"/>
      <path id="Path_167" data-name="Path 167" d="M16.057,13.3a1.964,1.964,0,0,0-1.964,1.964v4.844a3.883,3.883,0,0,0,1.694.442.94.94,0,0,0,1.047-.971V17.293h1.683v2.276c0,.885-.55,1.608-2.417,1.608a8.282,8.282,0,0,1-2.017-.248V25.06h2.881A1.964,1.964,0,0,0,18.927,23.1V13.3Z" transform="translate(-13.112 -12.384)" fill="url(#linear-gradient-4)"/>
      <path id="Path_168" data-name="Path 168" d="M94.912,13.3a1.964,1.964,0,0,0-1.964,1.964v2.568a3.922,3.922,0,0,1,2.751-.626,8.753,8.753,0,0,1,1.543.237v.831a3.734,3.734,0,0,0-1.489-.432c-1.057-.076-1.694.442-1.694,1.349s.637,1.435,1.694,1.349a3.917,3.917,0,0,0,1.489-.432v.831a8.548,8.548,0,0,1-1.543.237,3.922,3.922,0,0,1-2.751-.626v4.531h2.881a1.964,1.964,0,0,0,1.964-1.964V13.3Z" transform="translate(-86.54 -12.384)" fill="url(#linear-gradient-5)"/>
    </g>
  </g>
</svg>
