<svg xmlns="http://www.w3.org/2000/svg" xmlns:xlink="http://www.w3.org/1999/xlink" width="35" height="21" viewBox="0 0 35 21">
  <defs>
    <clipPath id="clip-path">
      <rect x="-1" y="-1" width="23.715" height="14.873" fill="none"/>
    </clipPath>
    <clipPath id="clip-Maestro">
      <rect width="35" height="21"/>
    </clipPath>
  </defs>
  <g id="Maestro" clip-path="url(#clip-Maestro)">
    <rect width="35" height="21" fill="#fff"/>
    <g id="mastercard" transform="translate(-0.432 -0.259)">
      <rect id="Rectangle_38" data-name="Rectangle 38" width="35" height="21" rx="6" transform="translate(0.432 0.259)" fill="#f6f8fa"/>
    </g>
    <g id="Scroll_Group_1" data-name="Scroll Group 1" transform="translate(7 3.75)" clip-path="url(#clip-path)" style="isolation: isolate">
      <g id="Maestro_2016">
        <g id="Group_119" data-name="Group 119">
          <path id="Path_155" data-name="Path 155" d="M193.465,97.961V97.7H193.4l-.076.174-.076-.174h-.065v.261h.043v-.2l.076.174h.054l.076-.174v.2Zm-.434,0v-.217h.087V97.7H192.9v.043h.087v.217Z" transform="translate(-171.956 -87.092)" fill="#00a2e5"/>
          <path id="Path_156" data-name="Path 156" d="M78.774,23.754H72.9V13.2h5.874Z" transform="translate(-64.985 -11.767)" fill="#7375cf"/>
          <path id="Path_157" data-name="Path 157" d="M8.3,6.71a6.692,6.692,0,0,1,2.562-5.277A6.711,6.711,0,1,0,6.71,13.42a6.667,6.667,0,0,0,4.148-1.433A6.692,6.692,0,0,1,8.3,6.71" fill="#eb001b"/>
          <path id="Path_158" data-name="Path 158" d="M110.858,6.71A6.712,6.712,0,0,1,100,11.987a6.714,6.714,0,0,0,0-10.554A6.712,6.712,0,0,1,110.858,6.71" transform="translate(-89.142)" fill="#00a2e5"/>
        </g>
        <g id="Group_120" data-name="Group 120" transform="translate(3.54 14.462)">
          <path id="Path_159" data-name="Path 159" d="M44.826,133.71a.789.789,0,0,1,.271.043l-.119.369a.656.656,0,0,0-.239-.043c-.25,0-.38.163-.38.456v1h-.391v-1.781h.38v.217a.543.543,0,0,1,.478-.261m-1.433.391h-.63v.8c0,.174.065.293.261.293a.77.77,0,0,0,.347-.1l.109.337a.892.892,0,0,1-.489.141c-.456,0-.619-.25-.619-.662V134.1h-.358v-.358h.358V133.2h.391v.543h.63Zm-4.962.38a.459.459,0,0,1,.478-.434.445.445,0,0,1,.456.434Zm1.335.163a.852.852,0,0,0-.847-.934.934.934,0,0,0,.022,1.867,1.062,1.062,0,0,0,.727-.25l-.2-.282a.848.848,0,0,1-.521.185.5.5,0,0,1-.532-.434h1.325a.733.733,0,0,0,.022-.152m1.7-.434a1.163,1.163,0,0,0-.554-.152c-.217,0-.337.076-.337.206s.13.152.3.174l.185.022c.391.054.619.217.619.532,0,.337-.293.586-.814.586a1.3,1.3,0,0,1-.771-.228l.185-.3a.975.975,0,0,0,.6.185c.261,0,.4-.076.4-.217,0-.1-.1-.152-.315-.185l-.185-.022c-.4-.054-.619-.239-.619-.521,0-.358.293-.575.738-.575a1.364,1.364,0,0,1,.727.185Zm4.777-.141a.486.486,0,0,0-.217.043.5.5,0,0,0-.174.119.773.773,0,0,0-.119.185.534.534,0,0,0-.043.228.5.5,0,0,0,.043.228.672.672,0,0,0,.119.185.621.621,0,0,0,.174.119.565.565,0,0,0,.434,0,.5.5,0,0,0,.174-.119.542.542,0,0,0,.119-.185.534.534,0,0,0,.043-.228.5.5,0,0,0-.043-.228.672.672,0,0,0-.119-.185.62.62,0,0,0-.174-.119.7.7,0,0,0-.217-.043m0-.358a.849.849,0,0,1,.38.076.814.814,0,0,1,.3.2,1.1,1.1,0,0,1,.206.293,1.067,1.067,0,0,1,.076.369.833.833,0,0,1-.076.369.719.719,0,0,1-.206.293.814.814,0,0,1-.3.2,1.128,1.128,0,0,1-.38.076.849.849,0,0,1-.38-.076.814.814,0,0,1-.3-.2,1.1,1.1,0,0,1-.206-.293,1.067,1.067,0,0,1-.076-.369.833.833,0,0,1,.076-.369.719.719,0,0,1,.206-.293.814.814,0,0,1,.3-.2.849.849,0,0,1,.38-.076m-10.076.934a.539.539,0,0,1,.543-.575.571.571,0,1,1-.543.575m1.444,0v-.89h-.391v.217a.659.659,0,0,0-.565-.261.935.935,0,0,0,0,1.867.687.687,0,0,0,.565-.261v.217h.391Zm-2.182.89v-1.118a.661.661,0,0,0-.706-.706.7.7,0,0,0-.63.315.649.649,0,0,0-.586-.315.591.591,0,0,0-.521.261v-.217H32.6v1.781h.391v-.988a.423.423,0,0,1,.434-.478c.261,0,.391.163.391.467v.988h.391v-.988a.429.429,0,0,1,.434-.478c.261,0,.391.163.391.467v.988h.4Z" transform="translate(-32.6 -133.2)"/>
          <path id="Path_160" data-name="Path 160" d="M169.752,152.419v.043h.043c.011,0,.022,0,.022-.011s.011-.011.011-.022,0-.011-.011-.011a.038.038,0,0,0-.022-.011h-.043Zm.043-.022c.022,0,.033,0,.043.011a.056.056,0,0,1,.022.043.04.04,0,0,1-.011.033c-.011.011-.022.011-.043.011l.054.065h-.043l-.054-.065h-.011v.065h-.033V152.4Zm-.011.217a.1.1,0,0,0,.054-.011.192.192,0,0,0,.076-.076.141.141,0,0,0,0-.109.192.192,0,0,0-.076-.076.081.081,0,0,0-.054-.011.1.1,0,0,0-.054.011.15.15,0,0,0-.043.033c-.011.011-.022.033-.033.043a.141.141,0,0,0,0,.109.15.15,0,0,0,.033.043c.011.011.033.022.043.033a.1.1,0,0,0,.054.011m0-.315a.138.138,0,0,1,.065.011.188.188,0,0,1,.1.087.2.2,0,0,1,0,.13.108.108,0,0,1-.043.054c-.022.011-.033.033-.054.043a.138.138,0,0,1-.065.011.185.185,0,0,1-.076-.011.109.109,0,0,1-.054-.043.238.238,0,0,1-.043-.054.2.2,0,0,1,0-.13.108.108,0,0,1,.043-.054.092.092,0,0,1,.054-.033.185.185,0,0,1,.076-.011" transform="translate(-154.725 -150.226)"/>
        </g>
      </g>
    </g>
  </g>
</svg>
