<svg xmlns="http://www.w3.org/2000/svg" xmlns:xlink="http://www.w3.org/1999/xlink" width="35" height="21" viewBox="0 0 35 21">
  <defs>
    <clipPath id="clip-Visa">
      <rect width="35" height="21"/>
    </clipPath>
  </defs>
  <g id="Visa" clip-path="url(#clip-Visa)">
    <rect width="35" height="21" fill="#fff"/>
    <g id="visa-2" data-name="visa">
      <rect id="Rectangle_41" data-name="Rectangle 41" width="35" height="21" rx="6" transform="translate(0 0)" fill="#f6f8fa"/>
      <path id="Path_36" data-name="Path 36" d="M22.811,23.174H20.776l1.272-8.03h2.035Zm-3.747-8.03-1.94,5.523-.23-1.189h0l-.685-3.611a.88.88,0,0,0-.965-.723H12.038L12,15.279a7.494,7.494,0,0,1,2.129.918L15.9,23.174h2.12l3.237-8.031Zm16.005,8.03h1.868l-1.629-8.031H33.673a.938.938,0,0,0-.939.6L29.7,23.174H31.82l.424-1.193h2.587ZM32.83,20.333,33.9,17.328l.6,3.005Zm-2.972-3.259.29-1.724a5.738,5.738,0,0,0-1.83-.35c-1.01,0-3.408.453-3.408,2.658,0,2.075,2.814,2.1,2.814,3.19s-2.524.894-3.358.207l-.3,1.8a5.575,5.575,0,0,0,2.3.453c1.389,0,3.483-.739,3.483-2.749,0-2.088-2.84-2.282-2.84-3.19s1.982-.791,2.853-.3Z" transform="translate(-6.75 -8.438)" fill="#2566af"/>
      <path id="Path_37" data-name="Path 37" d="M16.895,19.662l-.685-3.611a.88.88,0,0,0-.965-.723H12.038L12,15.463a7.792,7.792,0,0,1,3.02,1.558A6.272,6.272,0,0,1,16.895,19.662Z" transform="translate(-6.75 -8.622)" fill="#e6a540"/>
    </g>
  </g>
</svg>
