<svg xmlns="http://www.w3.org/2000/svg" xmlns:xlink="http://www.w3.org/1999/xlink" width="34" height="34" viewBox="0 0 34 34">
  <defs>
    <clipPath id="clip-Freaze">
      <rect width="34" height="34"/>
    </clipPath>
  </defs>
  <g id="Freaze" clip-path="url(#clip-Freaze)">
    <rect width="34" height="34" fill="#fff"/>
    <g id="Group_124" data-name="Group 124" transform="translate(-416 -95)">
      <rect id="Rectangle_45" data-name="Rectangle 45" width="34" height="34" rx="5" transform="translate(416 95)" fill="#fff"/>
      <path id="Icon_ionic-ios-snow" data-name="Icon ionic-ios-snow" d="M12.283,9.535,11.355,9a2.5,2.5,0,0,1,.75-.517.435.435,0,0,0,.255-.539.405.405,0,0,0-.387-.277.434.434,0,0,0-.158.031,3.346,3.346,0,0,0-1.2.881L7.858,7l2.758-1.582a3.321,3.321,0,0,0,1.2.881.434.434,0,0,0,.158.031.409.409,0,0,0,.387-.277.435.435,0,0,0-.255-.539A2.572,2.572,0,0,1,11.355,5l.928-.531a.425.425,0,0,0,.158-.582.434.434,0,0,0-.375-.215.454.454,0,0,0-.218.056l-.922.531a2.506,2.506,0,0,1-.074-.9.437.437,0,0,0-.344-.489.443.443,0,0,0-.086-.008.408.408,0,0,0-.4.35,3.242,3.242,0,0,0,.175,1.474L7.443,6.265v-2.8a3.38,3.38,0,0,0,1.366-.59.4.4,0,0,0,.052-.587.443.443,0,0,0-.326-.144.452.452,0,0,0-.272.093,2.5,2.5,0,0,1-.819.384V1.551a.444.444,0,0,0-.888,0V2.611a2.574,2.574,0,0,1-.819-.384.443.443,0,0,0-.6.051.4.4,0,0,0,.052.587,3.38,3.38,0,0,0,1.366.59v2.8L3.806,4.675A3.261,3.261,0,0,0,3.978,3.2a.4.4,0,0,0-.4-.35.443.443,0,0,0-.086.008.434.434,0,0,0-.344.489,2.5,2.5,0,0,1-.074.9l-.925-.525a.446.446,0,0,0-.218-.056.434.434,0,0,0-.375.215.424.424,0,0,0,.158.582l.928.531a2.533,2.533,0,0,1-.75.517.435.435,0,0,0-.255.539.405.405,0,0,0,.387.277A.434.434,0,0,0,2.179,6.3a3.346,3.346,0,0,0,1.2-.881L6.137,7,3.379,8.578a3.321,3.321,0,0,0-1.2-.881.434.434,0,0,0-.158-.031.409.409,0,0,0-.387.277.436.436,0,0,0,.255.539A2.533,2.533,0,0,1,2.64,9l-.928.531a.425.425,0,0,0-.158.582.434.434,0,0,0,.375.215.454.454,0,0,0,.218-.056l.925-.531a2.513,2.513,0,0,1,.074.9.434.434,0,0,0,.344.489.443.443,0,0,0,.086.008.408.408,0,0,0,.4-.35,3.242,3.242,0,0,0-.175-1.474L6.555,7.734v2.8a3.38,3.38,0,0,0-1.366.59.4.4,0,0,0-.052.587.443.443,0,0,0,.326.144.452.452,0,0,0,.272-.093,2.536,2.536,0,0,1,.819-.384v1.059a.444.444,0,0,0,.888,0V11.379a2.574,2.574,0,0,1,.819.384.452.452,0,0,0,.272.093.443.443,0,0,0,.326-.144.4.4,0,0,0-.052-.587,3.38,3.38,0,0,0-1.366-.59v-2.8l2.749,1.582a3.261,3.261,0,0,0-.172,1.474.4.4,0,0,0,.4.35.443.443,0,0,0,.086-.008.435.435,0,0,0,.344-.489,2.508,2.508,0,0,1,.074-.9l.922.531a.446.446,0,0,0,.218.056.434.434,0,0,0,.375-.215A.42.42,0,0,0,12.283,9.535Z" transform="translate(426.502 104.875)" fill="#23a3f7"/>
    </g>
  </g>
</svg>
